<?xml version="1.0" encoding="UTF-8" standalone="no"?>
<!-- Created with Inkscape (http://www.inkscape.org/) -->

<svg
   width="121.91248mm"
   height="85.105057mm"
   viewBox="0 0 121.91248 85.105056"
   version="1.1"
   id="svg5"
   sodipodi:docname="Jens2.svg"
   inkscape:version="1.1.2 (b8e25be8, 2022-02-05)"
   xmlns:inkscape="http://www.inkscape.org/namespaces/inkscape"
   xmlns:sodipodi="http://sodipodi.sourceforge.net/DTD/sodipodi-0.dtd"
   xmlns="http://www.w3.org/2000/svg"
   xmlns:svg="http://www.w3.org/2000/svg">
  <sodipodi:namedview
     id="namedview833"
     pagecolor="#ffffff"
     bordercolor="#666666"
     borderopacity="1.0"
     inkscape:pageshadow="2"
     inkscape:pageopacity="0.0"
     inkscape:pagecheckerboard="0"
     inkscape:document-units="mm"
     showgrid="false"
     inkscape:zoom="1.4928528"
     inkscape:cx="95.789753"
     inkscape:cy="157.75166"
     inkscape:window-width="1280"
     inkscape:window-height="747"
     inkscape:window-x="0"
     inkscape:window-y="25"
     inkscape:window-maximized="0"
     inkscape:current-layer="layer6" />
  <defs
     id="defs2">
    <inkscape:path-effect
       effect="powerstroke"
       id="path-effect78768"
       is_visible="true"
       lpeversion="1"
       offset_points="0.054994191,1.0661127 | 4.2818557,2.137539 | 5.9796322,2.1845283"
       not_jump="false"
       sort_points="true"
       interpolator_type="CentripetalCatmullRom"
       interpolator_beta="0.2"
       start_linecap_type="round"
       linejoin_type="round"
       miter_limit="4"
       scale_width="1"
       end_linecap_type="round" />
    <inkscape:path-effect
       effect="powerstroke"
       id="path-effect77876"
       is_visible="true"
       lpeversion="1"
       offset_points="1.6023935,1.6206348 | 8.3263522,3.408143 | 17,1.2044245"
       not_jump="false"
       sort_points="true"
       interpolator_type="CentripetalCatmullRom"
       interpolator_beta="0.2"
       start_linecap_type="peak"
       linejoin_type="round"
       miter_limit="4"
       scale_width="1"
       end_linecap_type="peak" />
    <inkscape:path-effect
       effect="powerstroke"
       id="path-effect77098"
       is_visible="true"
       lpeversion="1"
       offset_points="0.00080999788,3.4626031 | 6.8749133,2.6413627 | 18.776783,3.3853399"
       not_jump="false"
       sort_points="true"
       interpolator_type="CentripetalCatmullRom"
       interpolator_beta="0.2"
       start_linecap_type="round"
       linejoin_type="round"
       miter_limit="4"
       scale_width="1"
       end_linecap_type="round" />
    <inkscape:path-effect
       effect="powerstroke"
       id="path-effect76605"
       is_visible="true"
       lpeversion="1"
       offset_points="0.64912939,2.3219783 | 5.6815119,4.0149968 | 11.48986,1.1757702"
       not_jump="false"
       sort_points="true"
       interpolator_type="CentripetalCatmullRom"
       interpolator_beta="0.2"
       start_linecap_type="round"
       linejoin_type="round"
       miter_limit="4"
       scale_width="1"
       end_linecap_type="round" />
    <inkscape:path-effect
       effect="powerstroke"
       id="path-effect75637"
       is_visible="true"
       lpeversion="1"
       offset_points="0.048244042,4.913521 | 6.2920774,2.3614479 | 10.960331,0.75756338"
       not_jump="false"
       sort_points="true"
       interpolator_type="CentripetalCatmullRom"
       interpolator_beta="0.2"
       start_linecap_type="butt"
       linejoin_type="round"
       miter_limit="4"
       scale_width="1"
       end_linecap_type="zerowidth" />
    <inkscape:path-effect
       effect="powerstroke"
       id="path-effect74898"
       is_visible="true"
       lpeversion="1"
       offset_points="0.3484647,4.1502219 | 6.6726345,5.1376253 | 13.949628,4.7294699"
       not_jump="false"
       sort_points="true"
       interpolator_type="CentripetalCatmullRom"
       interpolator_beta="0.2"
       start_linecap_type="butt"
       linejoin_type="round"
       miter_limit="4"
       scale_width="1.1"
       end_linecap_type="round" />
    <inkscape:path-effect
       effect="powerstroke"
       id="path-effect71031"
       is_visible="true"
       lpeversion="1"
       offset_points="0,4.99214"
       not_jump="false"
       sort_points="true"
       interpolator_type="CubicBezierJohan"
       interpolator_beta="0.2"
       start_linecap_type="zerowidth"
       linejoin_type="extrp_arc"
       miter_limit="4"
       scale_width="1"
       end_linecap_type="zerowidth" />
    <inkscape:path-effect
       effect="powerstroke"
       id="path-effect71025"
       is_visible="true"
       lpeversion="1"
       offset_points="27,4.99214"
       not_jump="false"
       sort_points="true"
       interpolator_type="CubicBezierJohan"
       interpolator_beta="0.2"
       start_linecap_type="zerowidth"
       linejoin_type="extrp_arc"
       miter_limit="4"
       scale_width="1"
       end_linecap_type="zerowidth" />
    <marker
       style="overflow:visible"
       id="Arrow1Lstart"
       refX="0.0"
       refY="0.0"
       orient="auto"
       inkscape:stockid="Arrow1Lstart"
       inkscape:isstock="true">
      <path
         transform="scale(0.8) translate(12.5,0)"
         style="fill-rule:evenodd;fill:context-stroke;stroke:context-stroke;stroke-width:1.0pt"
         d="M 0.0,0.0 L 5.0,-5.0 L -12.5,0.0 L 5.0,5.0 L 0.0,0.0 z "
         id="path70608" />
    </marker>
    <inkscape:path-effect
       effect="skeletal"
       id="path-effect70207"
       is_visible="true"
       lpeversion="1"
       pattern="M 0,4.9921384 C 0,2.236478 2.236478,0 4.9921384,0 c 2.7556604,0 4.9921384,2.236478 4.9921384,4.9921384 0,2.7556604 -2.236478,4.9921384 -4.9921384,4.9921384 C 2.236478,9.9842768 0,7.7477988 0,4.9921384 Z"
       copytype="single_stretched"
       prop_scale="1"
       scale_y_rel="false"
       spacing="0"
       normal_offset="0"
       tang_offset="0"
       prop_units="false"
       vertical_pattern="false"
       hide_knot="false"
       fuse_tolerance="0" />
  </defs>
  <g
     id="layer1"
     transform="translate(-35.325315,-13.258384)" />
  <g
     id="layer4"
     transform="translate(-35.325315,-13.258384)" />
  <g
     id="layer5"
     transform="translate(-35.325315,-13.258384)" />
  <g
     inkscape:groupmode="layer"
     id="layer11"
     inkscape:label="Main 1"
     style="display:inline"
     transform="translate(1.1050598,-4.3254572)">
    <path
       d="m 97.791027,20.65343 h 0.230943 l -0.577357,0.109975 q 0.346414,0 0.346414,0.439903 0,0.329927 -0.115471,0.439903 -0.115472,0.109975 -0.230943,0.219951 -0.230942,0.109976 -0.346414,0.109976 -0.577356,-0.219952 -2.078484,-0.329927 -1.501127,-0.109976 -3.810553,-0.109976 -5.889038,0 -15.588629,0.549878 -9.584122,0.439903 -20.784842,1.099757 -1.616598,4.83893 -2.771311,10.447689 -1.154714,5.608759 -2.424898,11.547445 -1.270185,5.828711 -2.886783,11.767397 -1.616599,5.938686 -4.041497,11.437469 0,0 -0.230942,0.439903 v -0.109976 q 0,0.109976 -0.115472,0.219951 l 0.115472,-0.109975 -0.115472,0.659854 q -0.461885,0.659855 -0.461885,0.659855 0,0 -0.115471,0 v 0.109975 h 0.115471 l -0.115471,0.109976 -0.115472,0.109976 h 0.115472 l -0.230943,0.329927 -0.115471,0.439902 -0.230943,0.439903 q -0.346414,0.659854 -0.692828,1.429684 -0.346414,0.879805 -0.346414,1.429683 -1.270184,2.309489 -2.771312,4.728954 -1.501127,2.419465 -3.464139,4.399027 -1.847542,2.089537 -4.272439,3.409245 -2.309427,1.429684 -5.311681,1.759615 -0.577357,0 -0.692828,0.109976 h -0.461886 -0.230942 v -0.109976 l -0.577357,0.109976 v -0.109976 q 0,0.109976 -0.346414,0.109976 -0.346414,0 -0.461885,0.109975 H 20.656179 19.84788 q -0.577357,-0.109975 -1.270184,-0.219951 -0.577357,-0.109976 -1.154714,-0.219955 l -0.115471,-0.109976 -0.346414,0.109976 q -1.385656,-0.219952 -2.655841,-0.76983 -1.270184,-0.549878 -2.540369,-1.099757 l -0.230942,-0.219951 -0.808301,-0.439903 h 0.115472 l -0.230943,-0.219951 h -0.115471 q -0.230943,0 -0.346414,-0.109976 L 8.6471614,84.549294 7.6079195,83.559513 Q 7.2615055,83.229586 7.0305628,82.899659 H 6.9150915 V 82.789683 L 6.3377349,82.019854 5.8758496,81.579951 Q 5.298493,80.480194 4.7211363,79.380438 4.1437797,78.280681 4.0283084,77.400876 l 0.1154713,0.219951 0.1154713,0.329927 0.1154714,0.439903 0.4618853,0.439902 v -0.109975 l 0.2309426,0.219951 -0.1154713,-0.109976 0.2309426,0.329927 q 0.346414,0.439903 0.8082993,1.099757 0.4618853,0.76983 0.692828,1.209732 v 0.109976 q 0.2309426,0.109976 0.5773566,0.329927 0.346414,0.329927 0.5773566,0.549878 1.3856559,1.649635 2.1939549,2.089538 0.92377,0.439903 2.193956,1.319708 H 11.99583 q 0.230943,0 0.115471,0 0,0.109976 0.230943,0.219951 h -0.115471 l 0.115471,-0.109975 q 0,0.109975 0.115471,0.109975 h 0.346414 0.115472 q 0.346414,0.219952 0.808299,0.329927 0.577356,0.219952 0.92377,0.329927 v 0.109976 q 0.461886,0 1.039242,0.329927 0.577357,0.439903 1.039242,0.439903 h 0.346414 q 0.8083,0 2.193955,0.329927 1.039242,0 2.078484,0 1.154714,0 2.309427,-0.109976 l 0.115471,0.109976 q 0.923771,-0.549879 2.193955,-0.659854 1.270185,-0.109976 1.963013,-0.76983 v 0.219951 q 0.577356,-0.219951 0.577356,-0.439902 1.501128,-0.329927 3.695083,-2.419465 l -0.115472,0.329927 0.8083,-0.659854 v -0.329927 l 0.230942,-0.219951 -0.230942,0.219951 V 83.11961 q 0.692828,-0.879805 1.154713,-1.209732 h -0.115471 q 0,-0.219951 0.577356,-0.879805 0.577357,-0.549879 0.8083,-0.879806 0.115471,0 0,0.109976 0.230942,0 0.115471,-0.109976 -0.115471,-0.109975 0.346414,-0.549878 -2.886783,3.079319 -6.11998,4.728954 -3.233197,1.75961 -6.92828,1.75961 -4.272439,0 -7.505636,-1.75961 Q 11.99583,82.569732 9.6864028,80.260243 7.4924481,77.950754 6.1067922,75.641265 4.7211363,73.441752 4.259251,72.561946 2.6426525,69.812555 1.9498246,66.623259 q -0.692828,-3.189294 -0.692828,-6.59854 0,-4.289051 1.3856559,-9.89781 1.5011272,-5.608759 4.3879103,-10.557664 3.0022542,-4.948905 7.6211072,-8.35815 4.618853,-3.409246 11.085248,-3.409246 4.38791,0 7.274693,1.759611 3.002254,1.75961 4.734324,4.289051 1.73207,2.419464 2.424898,5.05888 0.692828,2.529441 0.692828,4.0691 0,3.29927 -0.808299,4.838929 -0.808299,1.53966 -1.73207,1.53966 -1.039242,0 -2.193955,-0.549879 -1.039242,-0.549878 -2.078484,-1.099756 -0.923771,-0.659854 -1.501127,-1.099757 -0.577357,-0.549878 -0.577357,-0.549878 1.039242,-1.099757 1.039242,-3.519222 0,-1.429683 -0.461885,-2.969343 -0.461886,-1.539659 -1.501127,-2.749391 -0.923771,-1.319708 -2.424898,-2.089538 -1.385656,-0.879805 -3.348669,-0.879805 -1.270184,0 -2.424897,0.329927 h 1.270184 l 0.692828,0.109975 h -0.115471 0.230942 0.115472 0.230942 l 0.115472,0.109976 q 0.461885,0 1.039242,0.329927 h 0.115471 l 0.92377,0.329927 0.461886,0.219951 1.154713,0.659854 q 0.923771,0.659854 1.616599,1.759611 0.692828,1.099757 0.808299,1.539659 l -0.115471,-0.109975 -0.230943,-0.329927 -0.230943,-0.329927 -0.230942,-0.109976 -0.692828,-0.549878 0.346414,0.109975 -0.346414,-0.329927 q -0.115472,0 -0.8083,-0.439902 -0.577356,-0.439903 -0.92377,-0.879806 l 0.115471,-0.329927 -0.577357,-0.109975 -0.461885,0.109975 q -0.230942,-0.219951 -0.461885,-0.219951 -0.115471,0 -0.346414,-0.109976 l -0.115471,-0.109975 h 0.230942 q 0.115472,0.109975 0.346414,0.109975 L 27.815401,35.39017 26.77616,35.170219 h -0.577357 l 0.115471,0.109975 -0.346414,-0.109975 q -0.230942,0 -0.461885,0.109975 H 25.04409 l 0.115471,-0.219951 0.115471,-0.219951 -0.461885,-0.109976 -0.808299,-0.329927 v 0.549878 q 0,0 0.230942,0.109976 l 0.115472,0.109976 -0.461886,-0.109976 h 0.230943 q -0.230943,0 -0.230943,0 0.115472,-0.109976 -0.115471,-0.109976 0,0 0.115471,0.109976 h -0.115471 q -0.115471,0 -0.230943,0.109976 h -0.461885 q -0.577356,0 -0.808299,0.109975 h -1.039242 0.230943 q 0,0 0.115471,0.109976 0.115471,0 0.115471,0 0,-0.109976 0.115472,-0.109976 h 0.230942 v -0.109975 l 0.346414,-0.219952 q 0,0 -0.115471,-0.109975 h -0.346414 -0.230943 v 0.109975 l -0.577356,0.219952 h -0.577357 l 0.461885,-0.329927 h 0.230943 l 0.461885,-0.329927 q -0.346414,0.109975 -0.692828,0.219951 -0.230942,0.109976 -0.577356,0.219951 l -0.230943,0.549879 h 0.230943 l 0.230942,0.109975 -0.346414,0.109976 q -0.92377,0.439903 -1.732069,0.76983 -0.692828,0.329927 -1.616599,0.879805 l -0.115471,-0.109976 q -1.154714,0.879806 -2.309427,1.649635 v -0.109975 l -0.230943,0.219951 q -0.115471,0.109976 -0.115471,0.219951 h 0.115471 q -0.577356,0.219952 -0.808299,0.659854 -0.115471,0.329927 -0.346414,0.329927 -2.078484,2.199514 -3.6950822,4.948905 -1.5011274,2.749392 -2.5403693,5.718735 -1.0392419,2.859367 -1.6165985,5.718735 -0.4618853,2.859367 -0.4618853,5.278832 0,6.59854 2.8867831,11.43747 0.5773566,0.989781 1.2701845,1.979562 0.5773565,0.879805 1.3856547,1.869586 0.923772,1.099757 2.078485,2.199514 l 0.115472,0.109975 0.115471,0.109976 q 0.230943,0.219951 0.346414,0.219951 l 0.461885,0.439903 0.346414,0.219951 v -0.109975 q 1.154713,0.879805 2.424898,1.539659 l -0.230943,-0.109976 -0.230942,-0.109975 h -0.230943 q 0.230943,0.219951 0.461885,0.219951 0.230943,0.109976 0.461886,0.329927 h 0.346414 q 1.270184,0.549878 2.424897,0.879805 1.270185,0.439903 2.655841,0.439903 2.886783,0 5.542623,-1.649635 2.655841,-1.649635 4.849796,-4.509002 2.309427,-2.749392 4.041496,-6.378589 1.847542,-3.629198 3.002255,-7.588322 1.847541,-5.168856 2.771312,-10.337713 1.039242,-5.278832 1.73207,-10.337712 0.692827,-5.168857 1.270184,-10.007786 0.692828,-4.948905 1.963013,-9.237957 -7.159222,0.329927 -14.202973,0.329927 -4.272439,0 -8.429407,-0.109976 Q 20.425237,23.512797 16.730154,22.962919 14.65167,22.632992 11.99583,22.193089 9.3399893,21.643211 6.9150915,20.543454 4.605665,19.443697 2.8735952,17.574111 1.2569966,15.704525 1.2569966,12.845158 q 0,-1.869587 0.346414,-2.9693428 0.4618853,-1.099757 0.9237706,-1.649635 0.5773566,-0.549879 1.0392419,-0.659854 0.5773566,-0.109976 0.6928279,-0.109976 0.9237706,0 1.8475412,0.659854 1.039242,0.659854 1.9630126,1.429684 1.0392419,0.8798048 2.0784832,1.9795618 0,0.219951 -0.6928272,0.549878 -0.6928281,0.219951 -0.6928281,0.439903 0,0.659854 1.8475403,1.649635 1.847542,0.879805 4.618854,1.649635 2.886783,0.769829 6.235452,1.429683 3.464139,0.549879 6.581865,0.549879 10.046005,0.769829 20.553896,0.98978 1.847541,-5.498783 3.579611,-8.248174 1.73207,-2.8593678 2.65584,-2.8593678 0.923771,0 1.963013,0.549879 1.039242,0.549878 1.963013,1.209732 0.923771,0.6598538 1.501128,1.3197078 0.577356,0.549878 0.577356,0.659854 v 0.219951 q -1.270184,1.53966 -2.424898,3.409246 -1.039242,1.759611 -1.963013,3.849148 8.544879,0 15.935046,0.219951 7.390165,0.109976 13.279202,0.109976 h 0.230943 -0.115472 0.577357 0.461885 q 0.115472,0 0.115472,0 0,-0.109976 0.230942,-0.109976 l 1.616599,0.219952 h 1.154713 q 0.461885,0 0.808299,0.109975 v -0.109975 q 0.115472,0 0.115472,0.109975 l 0.808299,0.109976 h 0.577357 q 0.92377,0.109976 1.963012,0.219951 1.154713,0.109976 1.847541,0.329927 l -0.346414,-0.109975 h -0.346414 l -0.461885,0.109975 q 1.154713,0.219952 1.501127,0.219952 l 0.577357,-0.109976 q 0.115471,0.109976 0.461885,0.109976 0.115471,0 0.115471,0.109975 h -0.461885 0.461885 l -0.115471,0.109976 h 0.346414 z m -71.592224,13.96691 0.115471,0.109976 q -0.115471,0 -0.115471,-0.109976 z m -0.230943,0.329927 h -0.230942 z m -2.424898,-0.769829 q -0.115471,0.109975 -0.230942,0.109975 v -0.109975 z m -0.346414,0.219951 h 0.115472 q 0,0 -0.115472,-0.109976 z m -4.503381,1.429684 q -0.115471,0 -0.346414,0.219951 l 0.461885,-0.219951 z m -3.695083,2.639416 0.230943,-0.109976 q 0.115471,-0.109976 0.115471,-0.219951 z M 7.3769768,82.239805 q 0.2309427,0.219951 0.2309427,0.219951 L 7.4924481,82.349781 q 0,0.109975 0,0.109975 0,-0.109975 -0.1154713,-0.219951 z m 0.692828,0.76983 q 0,0 -0.1154714,-0.219952 v 0.219952 z m 1.0392419,0.989781 V 83.88944 q -0.1154714,0 -0.2309427,-0.109976 z M 9.6864028,84.65927 9.3399893,84.549294 Z m 0.3464142,0.109975 q 0.230942,0.219952 0.577356,0.219952 h 0.115471 z m 2.424898,1.53966 h 0.230943 q 0,0 -0.230943,-0.109976 z m -0.346414,0 q 0.115472,0 0.115472,0.109975 0.115471,0 0.115471,-0.109975 h -0.115471 z m 0.461886,0.439902 V 86.528856 L 12.226773,86.41888 h -0.346414 l 0.461885,0.219952 0.346414,0.109975 z m 4.156967,1.099757 q 0,0 -0.230942,-0.109976 h 0.115471 v 0.109976 z m -0.346414,0 q 0.346414,0 0.346414,0.109976 -0.115471,-0.109976 -0.230942,-0.109976 z m 1.270185,0.76983 q 0,0 -0.115471,-0.109976 z m 0.692828,-0.439903 h 0.115471 z m 6.581865,-0.439903 -0.115471,-0.109975 v 0.109975 z m 7.043751,-2.859367 -0.692828,0.549878 -0.230942,0.219952 -0.461886,0.439902 0.692828,-0.439902 0.230943,-0.219952 z m 0.692828,-0.549878 0.461885,-0.439903 -0.230942,-0.219951 -0.461886,0.439902 -0.577356,0.439903 0.230942,0.219951 0.692828,-0.439902 z m 4.965267,-6.818492 0.230943,-0.329927 -0.115472,-0.219951 q -0.230942,0.439903 -0.577356,0.76983 l -0.346414,0.879805 h -0.346414 v 0.109976 l -0.230943,0.439902 q -0.346414,0.329927 -0.346414,0.549879 0,0.109975 0.115471,0.109975 l 0.230943,-0.219951 0.346414,-0.219951 0.577357,-0.879806 -0.230943,0.109976 0.230943,-0.219951 q -0.115472,0 0.230942,-0.329927 0.346414,-0.219952 0.346414,-0.549879 l -0.115471,0.109976 0.115471,-0.109976 z m 2.309427,-3.849148 q -0.230943,0.219951 -0.346414,0.439903 0,0.219951 -0.230943,0.439902 0.230943,-0.219951 0.346414,-0.439902 z m 0.692827,-1.099757 q -0.230942,0.219952 -0.230942,0.329927 v 0.109976 z M 97.444613,20.543454 h -0.115471 q -0.115471,0 -0.230943,-0.109976 0.346414,0.219952 0.346414,0.219952 z m -1.616598,-0.439903 0.808299,-0.109975 -0.230943,0.329927 q -0.346414,0 -1.501127,-0.219952 l 0.461885,-0.109975 h 0.346414 z m -4.156968,-0.549878 -0.115471,-0.219951 0.692828,0.109975 -0.115472,0.109976 z M 4.8366077,78.500632 4.7211363,78.06073 4.952079,78.610608 Z m 27.4821753,5.278832 h -0.115471 l 0.115471,-0.109975 z M 4.1437797,76.960973 H 4.259251 q 0.1154714,0 0.2309427,0.219951 L 4.605665,77.2909 Q 4.3747224,76.850997 4.3747224,76.741022 v 0.109975 q 0,-0.329927 -0.2309427,-0.549878 l 0.1154713,0.109976 q -0.1154713,0 -0.1154713,-0.219952 0,-0.109975 -0.1154713,-0.109975 0,0.219951 0.1154713,0.329927 -0.1154713,0 -0.1154713,-0.329927 0,-0.109976 -0.1154713,-0.329927 l 0.1154713,0.109975 q 0,0.109976 0.1154713,0.109976 V 75.861216 L 3.6818944,75.201362 q 0,0.109976 0,0.109976 0.1154713,0 0.1154713,0.109976 H 3.6818944 l 0.2309427,0.769829 Q 3.6818944,75.751241 3.6818944,75.751241 v 0.109975 q 0,0.109976 0.1154713,0.329927 0.1154714,0.219952 0.1154714,0.659854 z M 3.6818944,75.091387 v 0.109975 z m 32.9093276,3.739172 0.115471,-0.109975 -0.230942,0.329927 z M 4.1437797,77.620827 3.7973657,76.850997 h 0.1154714 l 0.3464139,0.109976 q 0.1154714,0 0.2309427,0.219951 L 4.605665,77.2909 4.7211363,77.730803 4.8366077,78.500632 5.0675503,78.940535 4.7211363,78.610608 4.8366077,78.830559 4.3747224,78.390657 4.259251,78.830559 4.1437797,77.840778 Z M 32.89614,83.559513 v -0.329927 l 0.230942,-0.219951 -0.230942,0.219951 -0.115472,-0.109976 -0.346414,0.439903 -0.115471,0.219951 -0.115471,0.109976 -0.115472,0.329927 z m 7.505636,-10.557664 0.230942,-0.439903 q -0.230942,0.219952 -0.230942,0.329927 z m 1.963012,-4.069101 0.230943,-0.109975 -0.115471,-0.109976 q -0.115472,0.219951 -0.115472,0.219951 z m -2.65584,5.168858 0.230943,-0.439903 q -0.230943,0.219951 -0.346414,0.439903 0,0.219951 -0.230943,0.439902 0.230943,-0.219951 0.346414,-0.439902 z m -1.847541,2.859367 h -0.115472 q -0.230942,0.439903 -0.577356,0.76983 l -0.346414,0.879805 h -0.346414 v 0.109976 l -0.230943,0.439902 q -0.346414,0.329927 -0.346414,0.549879 0.115471,0.109975 0.115471,0.109975 l 0.230943,-0.219951 0.346414,-0.219951 0.577357,-0.879806 -0.230943,0.109976 0.230943,-0.219951 q -0.115472,0 0.230942,-0.329927 0.346414,-0.219952 0.346414,-0.549879 l -0.115471,0.109976 0.115471,-0.109976 h -0.115471 l 0.230943,-0.329927 z m -1.270185,1.869586 -0.115471,0.219952 0.230942,-0.329927 z m -3.579611,4.948905 -0.115471,-0.109975 -0.577357,0.549878 -0.461885,0.329927 0.230942,0.219951 0.692828,-0.439902 H 32.665197 L 33.127082,83.88944 Z M 12.573187,86.528856 12.226773,86.41888 h -0.346414 l 0.692828,0.329927 0.115471,-0.109975 z m 0,0.219951 h 0.115471 z m 18.821826,-1.429683 0.577356,-0.439903 -0.577356,0.659854 -0.8083,0.549878 0.461886,-0.439902 0.230942,-0.219952 z M 6.3377349,82.019854 v 0.219951 L 5.9913209,82.019854 5.7603783,81.579951 h 0.2309426 z m 23.6716221,-44.210219 0.115471,0.219951 -0.230943,-0.329927 z m -7.967522,-2.859368 v -0.109975 z m 4.387911,0.549879 0.115471,0.109975 h -1.154713 l 0.115471,-0.329927 q 0.230943,-0.109975 0.461885,-0.109975 l 0.346414,0.109975 -0.115471,-0.109975 h 0.346414 l 1.270184,0.219951 -0.808299,0.219951 q -0.230942,0 -0.346414,-0.109975 h -0.115471 z m -10.39242,46.409732 0.692828,0.109976 -0.230942,0.219951 q -0.230943,-0.219951 -0.461886,-0.329927 -0.230942,0 -0.461885,-0.219951 h 0.230943 l 0.230942,0.109975 z m 15.357687,-42.780535 0.115471,0.329927 0.115471,0.549878 -0.461885,-0.659854 q -0.115471,0 -0.346414,-0.219951 v -0.219952 l -0.230943,0.109976 q -0.115471,-0.219951 -0.230942,-0.439903 0,-0.329927 -0.230943,-0.549878 l -0.115471,-0.219951 0.692828,0.439902 0.115471,0.219952 0.346414,0.219951 0.115471,0.109976 z m -3.002255,-2.749392 -0.577357,0.549878 -0.230942,-0.989781 h 0.808299 l -0.115471,0.329927 z M 25.04409,35.280194 H 24.582204 L 24.23579,35.060243 q -0.115471,0 -0.230942,-0.109976 v -0.549878 l 0.577356,0.329927 h 0.346414 l 0.346414,0.219951 -0.230942,0.219952 z m -3.810554,0 0.115471,0.109976 -0.577356,0.109976 h -0.346414 -0.230943 l 0.230943,-0.549879 q 0.346414,-0.109975 0.577356,-0.219951 0.346414,-0.109976 0.692828,-0.219951 l -0.461885,0.329927 h -0.230943 l -0.461885,0.329927 0.461885,-0.109976 h 0.577357 l 0.115471,-0.219951 h 0.230943 0.346414 q 0.115471,0 0.115471,0.109975 l -0.115471,0.109976 -0.230943,0.219951 q 0.115472,0 -0.115471,0.109976 -0.115471,0 -0.346414,0 -0.115471,0 -0.115471,-0.109976 z m 0.808299,-0.329927 v -0.109975 z m -7.505636,4.0691 v 0.329927 q 0,0 -0.230943,0.219951 l -0.115471,0.109976 h -0.230942 l 0.230942,-0.329927 z m -1.039242,41.240876 0.692828,0.219951 -0.230942,-0.109975 -0.461886,-0.329927 z m 1.73207,-41.90073 q 0.115471,-0.219951 0.115471,-0.219951 l -0.346414,0.329927 h 0.115472 z m 3.348669,-2.419465 0.230942,-0.109975 h -0.115471 q -0.115471,0 -0.346414,0.219951 z"
       id="path17846-8"
       style="font-size:112.69px;line-height:1.25;font-family:'Olympic Branding';-inkscape-font-specification:'Olympic Branding';display:inline;fill:#00ff00;stroke-width:10" />
    <path
       d="m 70.554222,55.735668 q 0,0.109976 0,0.219952 0.115471,0.109975 0.115471,0.219951 0,-0.109976 -0.346414,0.219951 0,0.109976 0,0.219952 0.115472,0.109975 0.115472,0.219951 -0.115472,0.219951 -0.230943,0.329927 -0.115471,0 -0.230943,0.109976 v 0.549878 0.219951 h -0.230942 l -0.346414,1.209733 -0.346414,0.219951 v 0.329927 l -0.346414,0.439903 -0.230943,0.659854 q -0.115471,0.109975 -0.230942,0.109975 -0.115472,-0.109975 -0.115472,0 v 0.219952 0.109975 l -0.230942,0.329927 q -0.115472,0.329927 -0.8083,1.319708 -0.692828,0.989781 -1.847538,2.199514 -1.039242,1.209732 -2.424898,2.199513 -1.385655,1.099757 -2.771311,1.429684 v -0.109976 q -0.115472,0.109976 -0.230943,0.109976 -0.115471,0 -0.230943,0.109975 h 0.115472 Q 59.238035,69.1527 59.122564,69.1527 h -0.115471 q -0.230943,0 -0.346414,0 0,0.109975 -0.115472,0.109975 -0.461885,0 -0.692828,-0.109975 -0.230942,0 -0.461885,0 H 57.04408 l 0.115472,-0.109976 q -0.230943,0 -0.346414,-0.109976 -0.115472,0 -0.230943,0 l -0.115471,-0.109975 h -0.115472 l 0.115472,0.219951 q -0.577357,0 -1.039242,-0.329927 v 0.109976 H 55.31201 Q 54.850125,68.492846 54.734654,68.272894 54.619182,68.052943 54.38824,67.832992 v 0.109975 q 0.230942,0.109976 -0.115472,-0.219951 -0.346414,-0.219951 -0.692828,-0.76983 -1.732069,-2.639416 -2.309426,-5.05888 -0.692828,-2.529441 -0.692828,-5.278832 0,-7.038443 1.847541,-12.207299 1.847541,-5.278832 4.041497,-8.688078 2.309426,-3.409246 4.272439,-5.058881 2.078483,-1.649635 2.424897,-1.649635 0.577357,0 0.8083,0.219952 0.346414,0 1.270184,0.439902 1.039239,0.329927 2.078481,1.53966 1.039242,1.099756 1.847541,3.189294 0.808299,1.979562 0.808299,5.278832 0,1.869586 -0.92377,3.959124 -0.923771,2.089538 -2.424898,3.959124 -1.501124,1.869586 -3.464137,3.29927 -1.847541,1.429684 -3.695082,1.869586 h 0.115471 q -0.92377,0.439903 -1.385656,0.549879 l -0.115471,0.109975 h -0.230943 v 0.109976 l -0.115471,-0.109976 -0.808299,0.329927 -0.230943,0.109976 v -0.109976 l -0.230942,0.109976 -0.230943,-0.109976 0.115471,0.109976 q -0.346414,0 -0.577356,0.659854 -0.230943,0.659854 -0.346414,1.539659 -0.115472,0.879806 -0.115472,1.869587 0,0.879805 0,1.319708 0,0.659854 0.115472,1.75961 0.230942,0.989781 0.577356,2.089538 0.346414,1.099757 0.8083,1.869586 0.577356,0.76983 1.270184,0.76983 1.73207,0 3.46414,-1.209732 1.847541,-1.209733 3.117726,-2.419465 l 0.92377,-0.989781 0.577354,-0.549878 0.230942,-0.439903 0.230943,-0.219951 q 0,0 0.230943,-0.439903 l 0.346414,-0.439903 0.115471,-0.329927 q 0.230943,-0.549878 0.461885,-1.099756 0.346414,-0.549879 0.577357,-0.989781 l -0.115471,0.219951 v 0.219951 l 0.115471,0.439903 0.115471,-0.109976 0.346414,-0.549878 v -0.219951 l -0.346414,-0.219952 0.115472,-0.219951 q 0.115471,-0.329927 0.230942,-0.329927 v 0.219951 -0.109975 l 0.115472,-0.219952 v 0.109976 q 0,0 0.115471,-0.219951 v 0.439902 q 0,0 -0.115471,-0.109975 -0.115472,0 -0.115472,0.219951 v 0.109976 -0.109976 q 0.115472,0 0.115472,0.219951 l 0.115471,-0.109975 -0.115471,0.329927 h -0.115472 v 0.219951 l 0.230943,-0.549878 0.346414,-0.219952 0.115471,-0.439902 q 0.230943,-0.439903 0.461885,-0.659854 l 0.230943,-0.219952 h -0.115471 l 0.115471,-0.219951 q 0,0 0.230943,-0.109976 0.692828,0 0.692828,0.439903 0,0.109976 -0.230943,0.439903 -0.115471,0.219951 -0.346414,0.439902 z M 57.852379,46.277761 q -0.346414,1.209732 -0.808299,2.52944 -0.346414,1.319708 -0.692828,2.859368 l 0.115472,0.109975 v -0.219951 l 0.692828,-0.439903 q 3.002254,-1.75961 5.080738,-4.728953 2.078484,-3.079319 2.078484,-7.258394 0,-2.419465 -0.923771,-3.849149 -1.039242,1.209733 -2.540369,3.849149 -1.385656,2.52944 -3.002255,7.148418 z"
       id="path17848-4"
       style="font-size:112.69px;line-height:1.25;font-family:'Olympic Branding';-inkscape-font-specification:'Olympic Branding';display:inline;fill:#00ff00;stroke-width:10" />
    <path
       d="m 89.26779,32.86073 q 0.923771,0.769829 1.039242,1.649635 0.230943,0.769829 0.230943,1.099756 -0.115471,2.859368 -0.923771,5.278832 -0.692828,2.309489 -1.270184,4.509003 -1.616599,5.608759 -2.309427,10.117761 -0.692828,4.509002 -0.692828,7.148418 0,1.869587 0.230943,2.419465 0.230943,0.549878 0.230943,0.659854 0,-0.109976 -0.230943,0.219951 -0.115471,0.439903 -0.577357,0.989781 -0.461885,0.549879 -1.154713,0.989781 -0.577356,0.439903 -1.501127,0.439903 -1.270185,0 -1.963013,-1.979562 -0.577356,-1.979562 -0.577356,-4.728954 0,-2.969343 0.92377,-8.248175 1.039242,-5.278832 3.695083,-13.087104 0,-0.109976 0,-0.109976 0.115471,-0.109975 0.115471,-0.219951 -2.309426,2.419465 -3.695082,4.948905 -1.385656,2.419465 -3.002255,4.948905 l -0.230942,0.219951 q 0,0.109976 -0.115472,0.219952 0,0 0,0.109975 l -0.230942,0.329927 v -0.109975 0.109975 0.219952 0.109975 l -0.346414,0.659854 -0.461886,0.989781 q -0.692828,4.179076 -1.039242,7.808273 -0.346414,3.519221 -0.346414,5.388807 0,1.099757 0.115472,1.209733 0,0.109975 -0.346414,0.439902 -0.346414,0.439903 -2.886783,0.439903 -2.193955,0 -2.193955,-0.989781 -0.115472,-0.879805 -0.115472,-2.749392 0,-1.75961 0.346414,-5.05888 l -0.230942,0.769829 -0.115472,-0.109975 0.115472,0.219951 -0.8083,1.429684 -0.115471,0.329927 V 61.78433 l -0.115471,0.109976 q 0,0 0.115471,0.109975 h -0.230943 l -0.230942,0.439903 -0.230943,0.439903 -0.346414,0.439902 -0.230943,0.109976 h 0.115472 q -0.692828,0.879805 -1.039242,1.099757 v -0.109976 l 0.230942,-0.109976 -0.115471,-0.329927 -0.115471,-0.109975 0.115471,-0.109976 q 0,-0.109976 -0.115471,-0.109976 l 0.115471,-0.109975 0.346414,-0.549879 0.115471,0.109976 v -0.109976 q 0,-0.219951 0.115472,-0.439902 0.115471,-0.329927 0.346414,-0.439903 l 0.461885,-0.989781 v 0.109976 q 0,-0.109976 0.115471,0 0,0 0,-0.109976 0.115472,0 -0.115471,-0.219951 0.230943,-0.219952 0.230943,-0.439903 -0.230943,0.219951 -0.230943,0.329927 l -0.230943,0.439903 -0.461885,0.659854 -0.346414,0.439902 -0.346414,0.439903 -0.461885,0.659854 -0.34641,0.439903 -0.230943,0.219951 -0.346414,0.439903 -0.346414,0.329927 q -0.346414,0.329927 -0.461885,0.329927 h -0.115471 0.115471 l -0.115471,0.109975 q -0.461886,0 -0.461886,-0.549878 0.115472,0 0.230943,-0.109976 0.115471,-0.109975 0.115471,-0.329927 l 0.230943,-0.109975 0.230943,-0.329927 v -0.439903 h 0.230942 l 0.230943,-0.659854 0.115471,-0.329927 0.230943,-0.549878 0.346414,-0.219952 -0.115471,-0.109975 0.34641,-0.879806 q 1.270184,-2.419464 2.540369,-5.82871 1.270184,-3.519221 2.424897,-7.148418 1.270185,-3.739173 2.309427,-7.258394 1.154713,-3.629197 2.193955,-6.268613 0.577357,-2.309489 0.692828,-3.629197 0.115471,-1.429684 1.73207,-1.429684 2.309426,0 3.233197,0.76983 1.039242,0.769829 1.039242,1.099756 0,0.989781 -0.808299,2.969343 -0.8083,1.979562 -2.193956,6.378589 0.346414,-0.549878 0.692828,-0.989781 0.346414,-0.549878 0.692828,-1.099757 0.461886,-0.549878 1.039242,-1.539659 0.692828,-1.099757 1.501128,-2.089538 0.808299,-0.989781 1.732069,-1.649635 1.039242,-0.769829 2.309427,-0.769829 0.692828,0 1.963012,0.659854 z M 67.44371,62.55416 h 0.115471 z m 0.230943,-0.329927 v -0.109976 z m 0.346414,-0.109976 v -0.109976 z m 0.692828,-2.199513 0.115471,-0.109976 h -0.115471 z m 0,1.319708 v -0.109976 l -0.115472,0.109976 0.115472,0.219951 0.115471,-0.219951 z m 0.230942,-1.319708 v 0.109975 z m 0.230943,-0.439903 h 0.115471 z m 0.461885,0.439903 v -0.109976 z"
       id="path17850-9"
       style="font-size:112.69px;line-height:1.25;font-family:'Olympic Branding';-inkscape-font-specification:'Olympic Branding';display:inline;fill:#00ff00;stroke-width:10" />
    <path
       d="m 117.66472,35.500146 c 0.15396,0 0.26943,0.07332 0.34641,0.219951 0.077,0.146634 0.11547,0.293268 0.11547,0.439903 0,0.146634 -0.077,0.219951 -0.23094,0.219951 -0.077,0 -0.19245,0.03666 -0.34641,0.109976 -0.077,0.07332 -0.11547,0.146634 -0.11547,0.219951 0.077,0.07332 0.077,0.109976 0,0.109976 h -0.11548 c -0.15396,0 -0.23094,0.07332 -0.23094,0.219951 0,0.07332 -0.077,0.109976 -0.23094,0.109976 -0.15396,0 -0.23094,0.07332 -0.23094,0.219951 0,0.07332 -0.0385,0.109976 -0.11548,0.109976 h -0.11547 l -0.57735,0.549878 -0.23095,-0.109976 -0.34641,0.329927 -0.34641,0.329927 -0.23095,-0.109975 -0.11547,0.109975 c 0,0.07332 0.0385,0.146635 0.11547,0.219952 l -0.8083,0.439902 c -1.77056,1.319708 -3.77206,3.04266 -6.0045,5.168857 -2.23245,2.126196 -4.27244,4.362368 -6.11998,6.708515 0.61585,1.393025 1.34716,2.859368 2.19395,4.399027 0.84679,1.466342 1.27018,2.859367 1.27018,4.179075 0,0.733171 -0.19245,1.576318 -0.57735,2.529441 -0.38491,0.953122 -0.96226,1.869586 -1.73207,2.749391 -0.76981,0.879805 -1.69358,1.612977 -2.77131,2.199514 -1.000753,0.586537 -2.193958,0.879805 -3.579613,0.879805 -1.077733,0 -2.001503,-0.219951 -2.771312,-0.659854 -0.769809,-0.366585 -1.385656,-0.843147 -1.847541,-1.429684 -0.461885,-0.659854 -0.808299,-1.319708 -1.039242,-1.979562 -0.230943,-0.659854 -0.346414,-1.209732 -0.346414,-1.649635 V 61.0145 c 0.07698,-0.733171 0.269433,-1.649634 0.577356,-2.749391 0.384905,-1.099757 0.962261,-2.346148 1.73207,-3.739173 0.769809,-1.466342 1.886032,-3.04266 3.348669,-4.728954 -0.153962,-0.366585 -0.269433,-0.659854 -0.346414,-0.879805 -0.07698,-0.293269 -0.192453,-0.623196 -0.346414,-0.989781 l -1.385656,2.639416 c -0.461885,0.806488 -0.962261,1.612976 -1.501127,2.419465 l -0.923771,2.309489 c -0.307923,0.586537 -0.615847,1.209732 -0.923771,1.869586 -0.230943,0.586537 -0.500376,1.209732 -0.808299,1.869586 l -0.230943,0.109976 c 0,0.07332 -0.03849,0.146634 -0.115471,0.219951 l -0.115471,0.219952 v 0.219951 0.109976 l -0.230943,0.329927 -0.115471,0.219951 -0.346414,0.879805 -0.808299,1.979562 -0.230943,0.219952 v 0.219951 0.219951 l -0.461885,0.549879 -0.115472,0.549878 -0.230942,0.219951 v 0.109976 l -0.346414,0.439903 c -0.153962,0.293268 -0.269433,0.586536 -0.346414,0.879805 -0.153962,0.293269 -0.269433,0.549879 -0.346414,0.76983 v -0.219952 l 0.115471,-0.109975 -0.230943,-0.439903 v 0.109976 l -0.115471,-0.109976 0.115471,-0.109976 v -0.219951 c -0.07698,0 -0.115471,-0.03666 -0.115471,-0.109976 l 0.461885,-0.769829 v -0.109976 c 0,-0.219951 0.115471,-0.623195 0.346414,-1.209732 0.230943,-0.659854 0.423395,-1.099757 0.577357,-1.319708 v 0.109975 c 0,-0.07332 0.03849,-0.07332 0.115471,0 v -0.109975 h -0.115471 l 0.115471,-0.219952 c 0,-0.146634 0.07698,-0.366585 0.230943,-0.659854 l -0.115471,0.109976 -0.461886,0.879805 -0.461885,0.549879 v 0.439902 l -0.230943,0.329927 -0.346414,0.659854 -0.230942,0.549879 c -0.07698,0.146634 -0.115472,0.25661 -0.115472,0.329927 -0.07698,0.07332 -0.115471,0.183292 -0.115471,0.329927 -0.07698,0.146634 -0.115471,0.25661 -0.115471,0.329927 l 0.115471,-0.109976 v 0.219951 c -0.153961,0.293269 -0.307923,0.439903 -0.461885,0.439903 -0.153962,0 -0.230943,-0.07332 -0.230943,-0.219951 0,-0.07332 0.03849,-0.25661 0.115472,-0.549879 v -0.659854 -0.109975 c -0.07698,-0.07332 -0.115472,-0.146635 -0.115472,-0.219952 l 0.115472,-0.109975 0.115471,-0.219952 0.230943,-0.659854 0.115471,-0.659854 0.230942,-0.879805 0.230943,-0.109976 v -0.329927 l 0.230943,-0.659854 0.346414,-0.219951 -0.115472,-0.219951 0.461886,-1.099757 c 0.923771,-2.199513 2.078484,-4.802271 3.464139,-7.808272 1.385656,-3.006002 2.732822,-6.085321 4.041497,-9.237956 -0.153962,-0.806489 -0.307924,-1.576318 -0.461885,-2.309489 -0.153962,-0.733171 -0.230943,-1.503001 -0.230943,-2.309489 l 0.115471,-0.329927 c 0,-0.219951 -0.03849,-0.329927 -0.115471,-0.329927 h 0.115471 v -0.219952 c -0.07698,-0.07332 -0.115471,-0.146634 -0.115471,-0.219951 0.07698,-0.07332 0.07698,-0.109976 0,-0.109976 v -0.549878 -0.329927 l 0.115471,-1.319708 v -0.219951 c 0,-0.366586 0.03849,-0.733172 0.115472,-1.099757 0.153961,-0.439903 0.307923,-0.843147 0.461885,-1.209732 V 32.420827 L 94.22404,31.980924 V 32.0909 l 0.115471,-0.219951 H 94.22404 v -0.219952 h 0.230943 l 0.692828,-1.319708 0.230942,-0.439902 h -0.115471 l 0.346414,-0.329927 0.230943,-0.329927 h -0.115472 c 0.230943,-0.293269 0.500376,-0.586537 0.8083,-0.879806 0.307923,-0.293268 0.538866,-0.549878 0.692828,-0.769829 v 0.109975 l 0.346414,-0.109975 v -0.329927 l 0.230942,-0.219952 v 0.109976 l 0.115472,-0.109976 v 0.109976 l 0.115471,-0.219951 v 0.109975 -0.109975 l 0.230943,-0.219952 0.115471,-0.109975 c -0.07698,-0.07332 -0.115471,-0.219952 -0.115471,-0.439903 0,-0.366585 0.423395,-0.659854 1.270184,-0.879805 h 0.11547 c 1.308669,0 2.155459,0.403244 2.540369,1.209732 0.46189,0.806488 0.69283,1.612976 0.69283,2.419465 0,1.173073 -0.3849,3.006001 -1.15471,5.498783 -0.69283,2.492782 -1.886038,5.315491 -3.579615,8.468126 l 0.692828,1.759611 c 0.230943,0.51322 0.461885,1.063098 0.692828,1.649635 1.847539,-1.759611 3.849039,-3.409246 6.004509,-4.948905 2.23245,-1.539659 4.31093,-2.749392 6.23545,-3.629197 l 0.46189,-0.219951 0.8083,-0.329927 0.23094,0.109975 0.57735,-0.219951 0.34642,-0.329927 h 0.46188 l 0.34642,-0.329927 0.23094,0.109976 0.46189,-0.219952 0.57735,-0.219951 0.11547,-0.219951 0.46189,-0.109976 h 0.23094 c 0.077,-0.07332 0.15396,-0.109976 0.23094,-0.109976 h 0.23095 z M 93.646684,35.39017 V 35.280194 Z M 86.256519,65.193576 V 65.0836 Z m 0.115471,-0.329927 h 0.115471 z m 0.230943,-0.439903 V 64.31377 Z m 0.230942,-0.549878 c 0.07698,-0.07332 0.115472,-0.183293 0.115472,-0.329927 z m 0.115472,0.329927 v -0.109976 z m 0.461885,-2.309489 v 0.109975 z m -0.115471,0.989781 c 0.07698,0 0.115471,-0.03666 0.115471,-0.109976 z m 0.230942,-1.209733 c 0,-0.07332 0.03849,-0.146634 0.115472,-0.219951 h -0.115472 z m 0.230943,1.209733 -0.230943,0.109975 0.115472,0.219952 0.115471,-0.219952 z m 0,-1.53966 0.115471,-0.109975 z m 0.230943,0 h 0.115471 z m 0.115471,0.109976 v -0.109976 z m 0.346414,-0.659854 c 0,-0.07332 -0.03849,-0.109976 -0.115471,-0.109976 z m 0.346414,0.439903 v -0.109976 z m 2.078484,-5.168857 c -0.07698,0.07332 -0.115472,0.146635 -0.115472,0.219952 l -0.115471,0.109975 v 0.109976 l 0.230943,-0.329927 z m 3.579611,-23.424817 h -0.115472 l -0.115471,0.329927 h 0.115471 z m 2.65584,-4.838929 0.115472,-0.109976 z m -0.115471,0.219951 0.115471,-0.109975 h -0.115471 z m 0,4.509003 c -0.230943,0.879805 -0.346414,1.759611 -0.346414,2.639416 v 1.099756 c 0,0.293269 0.03849,0.623196 0.115471,0.989781 0.769809,-1.979562 1.308676,-3.739173 1.616599,-5.278832 0.307923,-1.612976 0.538866,-2.78605 0.692828,-3.519221 h -0.461886 0.346414 l 0.115472,-0.109976 c 0,-0.293268 -0.03849,-0.439902 -0.115472,-0.439902 v -0.219952 c -0.153961,0.293269 -0.269433,0.439903 -0.346414,0.439903 -0.07698,0 -0.115471,0.03666 -0.115471,0.109976 l -0.115471,0.549878 -0.230943,0.109976 -0.230942,0.879805 c 0,0.07332 -0.03849,0.109976 -0.115472,0.109976 H 97.68818 l -0.230943,0.659854 -0.115471,0.549878 h -0.115471 c -0.07698,0 -0.115472,0.03666 -0.115472,0.109976 l 0.115472,0.219951 z m -0.692828,30.133332 c -0.07698,0 -0.07698,0.03666 0,0.109976 h 0.577357 c 0.461885,0 1.039242,-0.183293 1.732069,-0.549878 0.692827,-0.366586 1.077731,-1.173074 1.154711,-2.419465 0,-0.366585 -0.11547,-0.843147 -0.346411,-1.429684 -0.230943,-0.659854 -0.538866,-1.466342 -0.923771,-2.419464 -0.846789,1.466342 -1.462636,2.749391 -1.847541,3.849148 -0.307923,1.026439 -0.461885,1.75961 -0.461885,2.199513 0,0.293269 0.03849,0.51322 0.115471,0.659854 z M 93.646684,35.39017 V 35.280194 Z M 86.256519,65.0836 v 0.109976 z m 0.115471,-0.219951 h 0.115471 z m 0.230943,-0.439903 V 64.31377 Z m 0.230942,-0.549878 c 0.07698,-0.07332 0.115472,-0.183293 0.115472,-0.329927 z m 0.115472,0.329927 v -0.109976 z m 0.461885,-2.309489 v 0.109975 z m 0,0.879805 -0.115471,0.109976 c 0.07698,0 0.115471,-0.03666 0.115471,-0.109976 z m 0.115471,-1.319708 v 0.219951 l 0.115472,-0.219951 z m 0.230943,1.429684 -0.230943,0.109975 0.115472,0.219952 0.115471,-0.219952 z m 0,-1.53966 0.115471,-0.109975 z m 0.346414,0 h -0.115471 z m 0,0 v 0.109976 z m 0.230943,-0.659854 0.115471,0.109976 c 0,-0.07332 -0.03849,-0.109976 -0.115471,-0.109976 z m 0.461885,0.549879 v -0.109976 z m 1.847541,-4.728954 0.230943,-0.329927 v -0.109976 c -0.07698,0.07332 -0.115472,0.146635 -0.115472,0.219952 l -0.115471,0.109975 z M 94.339511,32.86073 94.22404,32.970705 h 0.115471 l 0.115472,-0.329927 h -0.115472 z m 2.771312,-5.058881 0.115472,-0.109976 z m -0.115471,0.109976 V 28.0218 l 0.115471,-0.109975 z"
       id="path17852-7"
       style="font-size:112.69px;line-height:1.25;font-family:'Olympic Branding';-inkscape-font-specification:'Olympic Branding';display:inline;fill:#00ff00;stroke-width:10"
       sodipodi:nodetypes="csssccsssssscccccccccsccssscsccsscccccccccccccccccccccccccccccccccccccccsccccccccccccccccccccssccccccccccccccsscsccccccccccscccccccccccccccscccccccccccccscscscccccccccccccccccccscccccccccccccccccccccccccccccccccccccccccccccccccccccccccccccccccccccssccccccccsccccscccscccccssccccscccccccccccccccccccccccccccccccccccccccccccccccccccccccccccccccccccc" />
  </g>
  <g
     inkscape:groupmode="layer"
     id="layer6"
     inkscape:label="Path2"
     style="display:inline"
     transform="translate(-35.325315,-13.258384)">
    <path
       style="fill:#000000;fill-rule:nonzero;stroke:none;stroke-width:0.264583px;stroke-linecap:butt;stroke-linejoin:miter;stroke-opacity:1"
       d="m 91.399911,14.183544 c -1.335285,1.861966 -4.679423,6.671905 -7.465511,13.541557 -0.680991,1.679118 -1.3822,3.60398 -2.053356,5.802422 -1.669234,5.467752 -2.680021,10.954509 -3.628899,18.411627 a 6.4645489e-5,0.01348166 7.1373856 0 0 -0.0014,0.0119 c -0.235218,1.717532 -0.59374,3.406552 -1.111262,5.464766 -0.439386,1.747463 -0.981583,3.684616 -1.52531,5.959267 a 0.27019996,2.0673277 0.47471236 0 0 -0.108066,0.77669 c -0.05897,0.7147 -0.22161,1.524745 -0.502218,2.471041 -0.272788,0.919925 -0.629449,1.880134 -1.060754,2.96199 -0.411927,1.033249 -0.875575,2.129262 -1.322227,3.300968 -0.422624,1.108675 -0.869932,2.394963 -1.15618,3.724356 a 0.00354781,0.12808402 12.46119 0 0 -0.0191,0.09941 c 0.0063,-0.08218 -0.0326,0.07608 -0.160418,0.34916 -0.132239,0.282514 -0.327166,0.647 -0.605709,1.101658 -0.555206,0.906247 -1.31499,1.963636 -2.225221,3.117093 -0.889633,1.127356 -1.86015,2.267425 -2.807264,3.340769 -0.941043,1.066463 -1.818909,2.022105 -2.555766,2.823772 0.46975,-0.538211 1.042054,-0.970632 1.677224,-1.27687 0.617048,-0.297501 1.197574,-0.430435 1.658045,-0.488083 0.449122,-0.05623 0.82325,-0.04561 1.064369,-0.02969 0.235778,0.01556 0.439975,0.04393 0.524665,0.0548 0.136951,0.01756 0.238596,0.01821 -0.07961,-0.05974 -0.122269,-0.02996 -0.331014,-0.07377 -0.600741,-0.102031 -0.269222,-0.02821 -0.654066,-0.04687 -1.114282,0.0025 a 5.2289789,5.7939455 14.09124 0 0 -4.10771,2.754319 c -0.123649,0.207564 -0.1978,0.274476 -0.204062,0.27187 -0.0063,-0.0026 0.05764,-0.06887 0.133716,-0.118452 0.0765,-0.04986 0.156728,-0.08106 0.165898,-0.08931 0.0092,-0.0083 -0.0538,9.86e-4 -0.203342,5e-4 -0.39365,-0.0013 -0.855238,-0.05217 -1.816059,-0.1846 -0.752588,-0.103727 -1.932323,-0.277643 -3.157037,-0.295424 -2.513543,-0.160558 -4.332345,-0.472823 -5.663531,-0.828387 -1.3735,-0.366866 -2.238442,-0.782688 -2.811602,-1.137685 -0.410302,-0.254128 -0.73978,-0.519808 -1.034635,-0.799519 -0.136298,-0.129297 -0.273626,-0.269636 -0.41667,-0.425615 -0.260723,-0.284297 -0.455895,-0.518387 -0.67397,-0.790283 -0.418262,-2.866201 -0.93883,-5.823805 -1.270118,-8.695571 -0.186503,-1.616707 -0.309617,-3.181089 -0.323231,-4.668805 -0.01326,-1.448913 0.07799,-2.779004 0.296389,-3.984026 0.09137,-0.510257 0.2069,-1.145749 0.341013,-1.83999 0.132076,-0.683696 0.281384,-1.420209 0.441977,-2.144295 0.159556,-0.719409 0.323347,-1.395191 0.484889,-1.977998 0.17202,-0.62061 0.292854,-0.961514 0.366287,-1.148933 0.792439,-1.847686 1.24302,-2.904291 1.420545,-3.320742 0.09749,-0.228699 0.14746,-0.341447 0.121389,-0.292595 -0.0057,0.01059 -0.05652,0.110526 -0.114493,0.212972 -0.06225,0.110003 -0.136475,0.226508 -0.127511,0.20972 0.009,-0.01678 0.08174,-0.136456 0.143734,-0.247176 0.06255,-0.111714 0.118583,-0.218597 0.171528,-0.323232 0.09842,-0.194498 0.219928,-0.448729 0.373653,-0.777406 0.311644,-0.666321 0.860774,-1.864548 1.834782,-4.021608 -0.116902,0.250104 -0.227707,0.389419 -0.262092,0.428154 -0.03931,0.04428 -0.01645,0.0059 0.06984,-0.0763 0.198391,-0.188873 0.573621,-0.48091 1.179924,-0.87276 1.281729,-0.828375 2.900723,-1.674019 4.888507,-2.771698 0.841093,-0.473883 1.913955,-0.754859 3.19596,-0.805019 1.356423,-0.05307 2.791322,0.159699 4.125596,0.53483 0.613022,0.172227 1.327583,0.338191 1.729745,0.436306 0.522323,0.127429 0.846122,0.215499 1.111464,0.30288 0.264055,0.08696 0.333132,0.131311 0.284192,0.08951 -0.07411,-0.06329 -0.257218,-0.215444 -0.427586,-0.501079 0.0039,-0.01062 0.197251,0.353537 0.352284,0.850152 0.18588,0.59543 0.340227,1.310929 0.468728,2.039504 0.156689,0.888393 0.281623,1.840065 0.367707,2.512647 0.129042,1.008217 0.216069,1.700205 0.261442,2.040137 0.03493,0.261703 0.06406,0.471996 0.06891,0.505972 a 5.2024169,5.2024169 90 0 0 10.30026,-1.471464 c -0.0052,-0.0361 -0.0235,-0.157152 -0.05167,-0.379769 -0.03441,-0.271982 -0.09748,-0.856178 -0.215278,-1.925941 -0.07397,-0.671745 -0.204088,-1.837253 -0.386404,-2.994439 -0.145385,-0.922782 -0.364826,-2.11624 -0.708537,-3.311487 C 76.658078,44.510397 76.199859,43.206029 75.431259,41.977355 74.727564,40.851526 73.824647,39.983822 72.858896,39.322594 71.98803,38.72633 71.094625,38.316738 70.299422,38.01723 69.555689,37.737108 68.83011,37.528986 68.235801,37.365183 67.619264,37.195254 67.20573,37.088422 66.826524,36.967662 64.649932,36.313421 62.077633,35.848767 59.36666,35.907665 c -2.592629,0.05633 -5.426728,0.587783 -8.13765,2.045646 -1.649119,0.882135 -3.844443,1.999824 -5.558377,3.070197 -0.882311,0.551014 -1.839268,1.209361 -2.702076,1.980436 -0.436819,0.390377 -0.89021,0.845493 -1.313751,1.370569 -0.422063,0.523245 -0.846765,1.155855 -1.189491,1.902711 -0.981229,2.144323 -1.504534,3.257381 -1.780376,3.822711 -0.135189,0.277066 -0.206883,0.412261 -0.214158,0.420379 -0.0036,0.004 0.01018,-0.02578 0.04142,-0.08299 0.0301,-0.05513 0.08023,-0.138595 0.06905,-0.123199 -0.01285,0.01772 -0.09593,0.147461 -0.187087,0.309556 -0.08412,0.149576 -0.149339,0.278925 -0.199297,0.380802 -0.08562,0.174596 -0.177071,0.374024 -0.285199,0.615527 -0.235643,0.526305 -0.648453,1.472024 -1.469728,3.364938 -0.358395,0.820438 -0.649572,1.71988 -0.881487,2.522484 -0.242868,0.840509 -0.463551,1.726412 -0.656797,2.564907 -0.197156,0.855458 -0.374488,1.699776 -0.525347,2.451415 -0.153715,0.765861 -0.284465,1.458199 -0.383683,1.989861 -0.3824,2.079448 -0.505596,4.150825 -0.490278,6.117108 0.01574,2.020666 0.179022,4.011377 0.393262,5.872255 0.455985,3.96067 1.132716,7.535502 1.52481,10.464269 a 5.5684566,5.7292214 20.72564 0 0 1.236973,2.850408 c 0.457284,0.55395 1.283415,1.629795 2.157347,2.566368 0.304126,0.325924 0.632568,0.657664 0.990405,0.990148 0.801495,0.744706 1.746837,1.489804 2.892489,2.181297 1.615242,0.974928 3.517316,1.776688 5.828993,2.372827 2.229256,0.574883 4.845411,0.96044 7.982056,1.132635 a 0.81671511,0.04940308 4.8044189 0 0 0.383712,0.009 c 0.378735,-0.01576 0.879142,0.03416 1.90437,0.152058 0.841831,0.09681 2.193524,0.259609 3.589945,0.200704 0.727306,-0.03068 1.541182,-0.12171 2.39825,-0.333601 0.85974,-0.212553 1.750166,-0.543665 2.629188,-1.042814 0.876905,-0.497946 1.683001,-1.129501 2.405683,-1.892524 0.714283,-0.754155 1.316242,-1.603864 1.82356,-2.523946 l -4.10771,2.754319 c -0.447292,0.04778 -0.8185,0.02914 -1.073821,0.0021 -0.256114,-0.02716 -0.45001,-0.06874 -0.558117,-0.09595 -0.291197,-0.07331 -0.156464,-0.06324 0.0071,-0.04086 0.1008,0.0138 0.3151,0.04429 0.566248,0.06123 0.254655,0.01718 0.641602,0.02806 1.103092,-0.02951 0.472778,-0.05899 1.064896,-0.194832 1.69265,-0.497345 0.645903,-0.31126 1.228012,-0.750813 1.70638,-1.298667 0.69699,-0.80413 1.614383,-1.850596 2.603824,-3.022259 0.995923,-1.179339 2.074301,-2.496581 3.094814,-3.847419 1.02393,-1.35536 2.034165,-2.802852 2.855468,-4.225684 0.416947,-0.722322 0.810773,-1.482121 1.137869,-2.256547 0.324081,-0.767289 0.627054,-1.652618 0.791329,-2.602325 l -0.0191,0.0994 c 0.100057,-0.586355 0.312808,-1.329745 0.643646,-2.287077 0.329026,-0.952091 0.749154,-2.038824 1.176393,-3.209496 0.438377,-1.201189 0.889744,-2.509903 1.250892,-3.880683 0.3478,-1.320118 0.619563,-2.725207 0.716916,-4.188845 0.396843,-1.904824 0.828023,-3.706002 1.21042,-5.489533 0.487311,-2.272854 0.858976,-4.335231 1.088071,-6.518871 l -0.0014,0.01188 c 0.833103,-7.188745 1.713674,-12.124261 3.129705,-16.895327 0.569965,-1.920395 1.166514,-3.589362 1.744543,-5.0331 2.364005,-5.90455 5.248317,-10.004824 6.417096,-11.634607 z"
       id="path71161"
       sodipodi:nodetypes="ccccscccssssssc"
       inkscape:original-d="m 95.109792,16.84404 c -8.69986,12.131366 -10.800963,23.997773 -12.219556,35.659328 -0.498705,4.189129 -1.596512,7.812228 -2.51168,11.930475 -0.271517,4.690098 -3.154382,9.38211 -3.924498,13.186317 -0.654214,3.598177 -6.574205,10.157354 -9.418796,13.343295 -0.03485,0.03903 -0.105032,-0.0063 -0.15698,0 -2.517034,4.498328 -6.620022,2.474431 -10.046715,2.511679 C 45.539422,92.822367 43.51109,89.239423 41.03604,86.223827 40.167603,79.663467 38.375621,72.027832 39.563773,65.532703 c 0.387082,-2.116015 1.188697,-6.344746 2.040739,-8.319937 3.280156,-7.603995 0,0 3.924499,-8.633897 0.904208,-1.989259 4.579802,-3.774148 8.319937,-5.808257 3.481173,-1.893268 7.810465,-1.698313 11.459535,-0.62792 1.999003,0.586375 4.536051,0.909079 5.651277,2.668659 1.533531,2.41957 1.792603,7.210893 2.19772,10.046716"
       inkscape:path-effect="#path-effect74898" />
  </g>
  <g
     inkscape:groupmode="layer"
     id="layer3"
     inkscape:label="Path1"
     style="display:inline"
     transform="translate(-35.325315,-13.258384)">
    <a
       id="a28893" />
    <path
       style="fill:#000000;fill-rule:nonzero;stroke:none;stroke-width:0.264583px;stroke-linecap:butt;stroke-linejoin:miter;stroke-opacity:1"
       d="m 40.50559,13.922203 c -0.04717,0.05803 -0.113648,0.131373 -0.285475,0.344632 -0.193825,0.240563 -0.584373,0.712543 -1.214142,1.497886 -0.220686,0.275203 -0.527496,0.663689 -0.821342,1.078989 -0.252449,0.356794 -0.563906,0.828397 -0.847436,1.37865 -0.256642,0.498072 -0.520648,1.117774 -0.698139,1.844751 -0.165574,0.678169 -0.248572,1.419921 -0.201408,2.214895 0.04373,0.737127 0.195319,1.453089 0.436299,2.146888 0.22484,0.647333 0.523175,1.263413 0.872486,1.855982 a 4.3313711,1.8575972 73.889776 0 0 1.02724,1.254003 c 1.36657,1.078872 2.80775,1.981822 4.236119,2.666033 0.642861,0.307941 1.278299,0.569071 1.892091,0.777601 0.580266,0.197139 1.167038,0.356077 1.740964,0.458275 1.968367,0.438492 3.088138,0.670075 3.802183,0.792789 0.337823,0.05806 0.625678,0.09884 0.898761,0.125934 0.138435,0.01373 0.30846,0.02744 0.489393,0.03283 0.194066,0.0058 0.386885,0.0016 0.570424,-0.0153 0.175982,-0.01618 0.269864,-0.03649 0.280914,-0.04544 0.01148,-0.0093 -0.04588,-0.01398 -0.09235,-0.02108 -0.09661,-0.01478 -0.132058,-0.03841 0.0127,-0.04524 0.135382,-0.0064 0.401915,0.0051 0.839423,0.04857 0.434221,0.04313 1.029549,0.116826 1.838056,0.233724 0.329613,0.0197 0.768281,0.05865 1.252789,0.103016 0.482523,0.04418 1.020368,0.09466 1.567787,0.139495 0.544988,0.04464 1.108386,0.08445 1.647703,0.107176 0.531395,0.02239 1.078451,0.03005 1.588231,0.0024 1.670628,-0.05133 3.580997,-0.0044 5.445272,0.03209 0.946259,0.01851 1.874781,0.03414 2.754191,0.03265 0.89354,-0.0015 1.746083,-0.02066 2.52161,-0.07391 2.196022,-0.126148 3.708595,-0.200009 5.188943,-0.247023 1.601532,-0.05086 3.188529,-0.07017 5.240755,-0.08176 1.18844,-0.0072 2.365782,-0.0502 3.449452,-0.102135 2.438903,-0.116883 5.543859,-0.323568 8.153111,-0.359367 a 0.30129078,0.01130008 0.064929 0 0 0.169195,-0.0062 c 1.664647,-0.155748 3.462661,-0.174913 5.375725,-0.174723 1.806825,1.8e-4 3.714325,0.01809 5.393425,-0.08763 a 4.4127699e-5,0.01624563 86.426665 0 0 0.0196,-0.0012 c 1.12435,-0.08648 2.2684,-0.06837 3.50667,-0.05062 1.25724,0.01802 2.55689,0.03378 3.88218,-0.08059 a 0.00965582,0.26167149 86.019441 0 0 0.13052,-0.01394 c 3.2434,-0.494337 6.62692,-0.588006 9.30333,-0.663543 a 1.8080079e-4,0.00930765 89.094151 0 0 0.0129,4.6e-5 c 0.30702,-0.0142 0.74175,-0.02382 1.24581,-0.0298 0.53376,-0.0063 1.1492,-0.0087 1.79876,-0.0083 1.45425,8.07e-4 3.07746,0.015 4.53357,0.02896 1.87426,0.01798 3.44946,0.03523 4.63733,0.03024 0.83113,-0.0035 1.46009,-0.01775 1.93323,-0.04879 0.53045,-0.0348 0.86148,-0.09064 1.06682,-0.172902 0.39931,-0.159977 0.43639,-0.581997 0.51255,-0.685129 -0.0336,-0.113886 0.0731,-0.543692 -0.29325,-0.814044 -0.18906,-0.139522 -0.52284,-0.287363 -1.06001,-0.436534 -0.48028,-0.133375 -1.11935,-0.26692 -1.96226,-0.399464 -1.21641,-0.191276 -2.78451,-0.368857 -4.68762,-0.532575 -1.49584,-0.128683 -3.08004,-0.238447 -4.57887,-0.327646 -0.65995,-0.03927 -1.28127,-0.07323 -1.83112,-0.101224 -0.5103,-0.02598 -0.9769,-0.0477 -1.31494,-0.06149 l 0.0129,4.6e-5 c -2.69719,-0.113117 -6.23374,-0.14488 -9.78659,0.308374 -1.09456,0.06018 -2.19291,0.02454 -3.45457,-0.02045 -1.19664,-0.04267 -2.52909,-0.09311 -3.87174,-0.02005 l 0.0196,-0.0012 c -1.51215,0.06909 -3.25017,0.02469 -5.124467,-0.01387 -1.866408,-0.0384 -3.784735,-0.0681 -5.625623,0.03563 -2.65823,-0.0463 -5.536139,0.03343 -8.191688,-0.01441 -1.048834,-0.01794 -2.150689,-0.05153 -3.247635,-0.120084 -1.952721,-0.10612 -3.357641,-0.207606 -5.304281,-0.313571 -1.535451,-0.08229 -3.147268,-0.143427 -5.398844,-0.155371 -0.609292,-0.01864 -1.32203,-0.06266 -2.155098,-0.128463 -0.815466,-0.06441 -1.685583,-0.144718 -2.627646,-0.232834 -1.791831,-0.167599 -3.86127,-0.366338 -5.71507,-0.456283 -0.182519,-0.03677 -0.536025,-0.09455 -0.9446,-0.173262 -0.416571,-0.08025 -0.870852,-0.17438 -1.355017,-0.281127 -0.480342,-0.105903 -0.960609,-0.217755 -1.409966,-0.327346 -0.456541,-0.111344 -0.857252,-0.214451 -1.205138,-0.308289 -0.841762,-0.158012 -1.502811,-0.278113 -2.013426,-0.367112 -0.508476,-0.08863 -0.917763,-0.155229 -1.236959,-0.199225 -0.338053,-0.0466 -0.620134,-0.07471 -0.921717,-0.08296 -0.143045,-0.0039 -0.274998,-0.0018 -0.329173,-0.0058 -0.05138,-0.0038 -0.02455,-0.01691 0.09215,-0.0313 0.119318,-0.01471 0.243882,-0.01878 0.350588,-0.02013 0.100327,-0.0013 0.15078,-7.27e-4 0.159339,-0.0088 0.01457,-0.0138 -0.13556,-0.06094 -0.408568,-0.139397 -0.545787,-0.15685 -1.704293,-0.470375 -3.617335,-0.966274 -0.05129,-0.04261 -0.27736,-0.156305 -0.512837,-0.285826 -0.26991,-0.14846 -0.581777,-0.330286 -0.937772,-0.561545 -0.794585,-0.516173 -1.634721,-1.166256 -2.460176,-1.954218 l 1.027236,1.253999 c -0.08065,-0.181879 -0.08704,-0.262626 -0.06394,-0.246734 0.02621,0.01803 0.07474,0.139843 0.09817,0.316414 0.02635,0.198538 0.01451,0.397279 -0.01378,0.568902 -0.02896,0.175671 -0.06439,0.275569 -0.0573,0.295481 0.0073,0.02052 0.06679,-0.04576 0.174067,-0.161664 0.161035,-0.17398 0.272223,-0.292573 0.508278,-0.540123 0.529931,-0.555735 1.125982,-1.193005 1.397576,-1.504715 0.226288,-0.259713 0.345273,-0.415756 0.396233,-0.478442 z"
       id="path75388"
       sodipodi:nodetypes="ccsssscccccc"
       inkscape:path-effect="#path-effect75637"
       inkscape:original-d="m 44.318213,17.021654 c -2.380751,2.928553 -4.278902,4.032655 -2.599234,7.056777 2.347188,1.997775 4.617887,3.045317 5.889982,3.351751 7.926016,1.909291 1.682198,0.363913 8.282303,1.463931 1.355373,0.225895 4.06366,0.704611 5.485614,0.721068 3.521808,0.04076 7.822169,0.475672 10.609441,0.404203 4.332361,-0.111086 6.263566,-0.03445 10.563378,0.07 3.782644,0.101191 7.742555,-0.172884 11.548148,-0.163 3.587152,-0.270643 7.635775,0.02935 10.820045,-0.145558 2.45945,-0.158674 4.91932,0.133392 7.37731,-0.04646 3.18751,-0.448137 6.43762,-0.514601 9.59049,-0.49182 2.55107,0 12.61034,0.343744 15.72807,0.893623" />
  </g>
  <g
     inkscape:groupmode="layer"
     id="layer7"
     inkscape:label="Path3"
     style="display:inline"
     transform="translate(-35.325315,-13.258384)">
    <path
       style="fill:#000000;fill-rule:nonzero;stroke:none;stroke-width:0.264583px;stroke-linecap:butt;stroke-linejoin:miter;stroke-opacity:1"
       d="m 94.904545,63.488657 c 0,0 0,0 0,0 0.05963,-0.02809 0.187338,-8.09e-4 2.614242,-1.579545 0.714921,-0.465066 1.862701,-1.228271 3.377593,-2.358222 a 0.00913255,0.1678218 52.512706 0 0 0.15442,-0.132371 c 0.14755,-0.0689 0.51501,-0.31148 1.1982,-1.090971 0.58438,-0.666766 1.47281,-1.811058 2.72258,-3.764918 a 0.05947999,0.88593507 21.031286 0 0 0.23853,-0.514522 c 0.54088,-1.319301 0.99584,-2.821727 1.30643,-4.360173 0.28805,-1.426772 0.46959,-2.976623 0.42335,-4.415494 a 0.56691623,0.07298255 86.919802 0 0 -0.11904,-0.647591 c 0.0511,-0.07474 -0.0737,-0.7856 -0.35661,-1.69008 -0.13557,-0.433366 -0.32524,-0.965389 -0.57087,-1.485219 -0.12357,-0.261495 -0.27828,-0.556239 -0.46925,-0.852186 -0.1835,-0.284377 -0.45225,-0.651166 -0.8269,-1.001903 -0.39743,-0.38979 -0.90575,-0.821214 -1.53478,-1.188218 -0.64474,-0.376167 -1.4287,-0.69144 -2.34384,-0.814865 -0.933918,-0.125955 -1.869247,-0.03344 -2.769401,0.247356 -0.892214,0.27832 -1.697458,0.724258 -2.417852,1.24982 a 1.3517485,3.5959877 25.974632 0 0 -0.660856,0.625464 c -0.510547,0.589191 -0.924871,1.081473 -1.279496,1.525415 -0.365922,0.458087 -0.668765,0.865372 -0.943216,1.267635 -0.20365,0.298489 -0.384044,0.583115 -0.553427,0.865379 -0.06402,0.106688 -0.126951,0.21387 -0.189567,0.322406 -0.221081,0.383215 -0.437305,0.781574 -0.694276,1.252994 a 0.09426172,1.1955472 30.726737 0 0 -0.252897,0.513532 c -0.392513,1.00953 -0.773334,1.86928 -1.153042,2.686896 -0.367371,0.79105 -0.73852,1.547235 -1.111205,2.377861 -0.361482,0.805656 -0.725956,1.691101 -1.032073,2.695571 -0.303081,0.99451 -0.536933,2.064254 -0.685886,3.295956 -0.162706,1.548159 -0.436111,3.013034 -0.663667,4.697913 -0.227003,1.680778 -0.384221,3.503626 -0.223631,5.677267 0.0961,1.608525 0.337026,3.388958 0.780361,5.075745 0.223123,0.848935 0.50378,1.698245 0.85612,2.503432 0.35194,0.804273 0.791523,1.601536 1.345198,2.31819 0.55719,0.721203 1.259147,1.397963 2.135895,1.89445 0.441452,0.249987 0.918766,0.449217 1.429252,0.58384 0.51242,0.135133 1.039936,0.200319 1.575956,0.195781 1.07833,-0.0091 2.124138,-0.298582 3.117113,-0.774823 0.994734,-0.477085 1.976861,-1.160366 2.953577,-2.011779 0.57527,-0.627099 1.41901,-1.275993 2.37127,-2.112894 0.47663,-0.418892 0.9617,-0.871117 1.40715,-1.364208 0.4621,-0.511539 0.89187,-1.078305 1.22756,-1.710772 0.72153,-1.354312 1.17497,-2.771324 1.52044,-3.92948 0.45922,-1.539503 0.70677,-2.512598 1.15243,-3.709395 0.0198,-0.0498 0.0365,-0.09927 0.0495,-0.13939 0.0137,-0.04219 0.0279,-0.08866 0.0415,-0.133683 0.0266,-0.08826 0.0606,-0.204666 0.0938,-0.319405 0.0657,-0.22665 0.16622,-0.576687 0.26357,-0.916092 0.3029,-1.055953 0.51343,-1.791339 0.81632,-2.847292 0.74425,-2.593966 1.53891,-5.353594 2.24615,-7.776713 -1e-5,1.7e-5 0.10395,-0.35599 0.10395,-0.355972 1.0157,-3.47642 1.81634,-6.164206 2.4085,-8.103905 0.39272,-1.286398 0.67411,-2.179665 0.87593,-2.799725 0.12747,-0.391617 0.22092,-0.667226 0.28878,-0.85967 0.0404,-0.1145 0.0709,-0.19731 0.0932,-0.255331 0.0125,-0.03245 0.0218,-0.05557 0.0281,-0.07073 0.007,-0.01624 0.01,-0.02223 0.005,-0.01125 a 1.1757702,1.1757702 90 0 0 -2.14076,-0.973066 c -0.0194,0.04269 -0.0367,0.08539 -0.0523,0.12629 -0.0146,0.03827 -0.0299,0.08039 -0.046,0.126633 -0.0287,0.08222 -0.0627,0.18454 -0.10356,0.311149 -0.0686,0.212836 -0.16019,0.50567 -0.28345,0.906254 -0.19808,0.643748 -0.46783,1.532396 -0.86123,2.831704 -0.47895,1.581854 -1.51226,5.001636 -2.46044,8.099136 7.4e-4,-0.0024 -0.10933,0.356978 -0.10859,0.354572 -0.68955,2.250317 -1.6396,5.317822 -2.41025,7.715789 -0.34139,1.062267 -0.66547,2.048976 -0.92085,2.784139 -0.1196,0.344299 -0.22515,0.636306 -0.30866,0.849831 -0.0404,0.103355 -0.0757,0.188308 -0.10296,0.247078 -0.0133,0.02873 -0.0247,0.05114 -0.0327,0.06368 -0.008,0.01238 -0.0129,0.01623 -0.008,-0.0018 -0.68209,1.283182 -1.08424,2.255156 -1.75381,3.663105 -0.51395,1.080708 -1.05862,2.122746 -1.75154,3.025031 -0.19639,0.217893 -0.45959,0.453494 -0.81075,0.713523 -0.34142,0.252817 -0.7345,0.505972 -1.196731,0.783085 -0.727598,0.436198 -2.071782,1.168478 -2.976318,1.812347 -0.750518,0.596415 -1.357116,0.942038 -1.819109,1.123093 -0.455956,0.178689 -0.719103,0.178055 -0.83614,0.152434 -0.05892,-0.0129 -0.09037,-0.0331 -0.112804,-0.0516 -0.01765,-0.01456 -0.04907,-0.04597 -0.07795,-0.07523 -0.06424,-0.06508 -0.198463,-0.203343 -0.364911,-0.471816 -0.169401,-0.273238 -0.349742,-0.644341 -0.522573,-1.133975 -0.170775,-0.48381 -0.319515,-1.041807 -0.440754,-1.660729 -0.243008,-1.240551 -0.353557,-2.614163 -0.349237,-3.892992 0.03834,-1.557564 0.292806,-2.862685 0.626013,-4.231285 0.3281,-1.347625 0.805684,-3.012413 1.150055,-4.856953 0.15471,-0.797243 0.351166,-1.423827 0.57022,-1.976924 0.225327,-0.568934 0.497829,-1.118071 0.831659,-1.744576 0.344407,-0.646357 0.760124,-1.383304 1.217738,-2.258246 0.433421,-0.828684 0.888231,-1.752323 1.353529,-2.832487 0.253288,-0.405015 0.415812,-0.666349 0.599583,-0.955036 0.05295,-0.08317 0.102614,-0.160624 0.150454,-0.234619 0.124223,-0.19214 0.242825,-0.371154 0.366198,-0.550847 0.164989,-0.240308 0.360934,-0.514661 0.628597,-0.867493 0.265821,-0.350404 0.600871,-0.776394 1.058601,-1.34041 l -0.66085,0.625462 c 0.18198,-0.151802 0.22184,-0.160355 0.11925,-0.144135 -0.12263,0.01939 -0.32502,0.04408 -0.575144,-0.0078 -0.232957,-0.04828 -0.38349,-0.140669 -0.419258,-0.190063 -0.03798,-0.05246 0.05141,-0.03219 0.193313,0.05755 -0.189025,-0.185907 -0.243296,-0.304566 -0.248326,-0.330207 -0.0073,-0.03717 0.03271,-0.006 0.08051,0.05175 0.106182,0.128395 0.246332,0.366664 0.382639,0.622673 0.278066,0.522251 0.495746,1.026604 0.549206,0.948437 a 0.66593419,0.00102165 79.496213 0 0 -0.11904,-0.64759 c 0.14267,0.769509 0.1681,1.817143 0.0792,2.944541 -0.0895,1.134857 -0.28576,2.259972 -0.538697,3.240994 -0.891497,1.640304 -1.502925,2.660688 -1.800761,3.164127 -0.399429,0.675166 -0.444597,0.775178 -0.273755,0.695397 a 0.00264759,0.19368519 50.181003 0 0 0.154427,-0.132371 c -1.364556,1.136036 -2.35919,1.881862 -2.98304,2.32348 -2.103065,1.48874 -2.04908,1.251781 -1.989451,1.223691 a 2.3219783,2.3219783 90 0 0 1.979058,4.20115 z"
       id="path76204"
       sodipodi:nodetypes="ccccsccsssssc"
       inkscape:path-effect="#path-effect76605"
       inkscape:original-d="m 93.915016,61.388082 c 0,0 1.808975,-0.852163 5.482161,-3.742469 0,0 0.929883,-0.867321 3.098153,-4.543513 0.84494,-2.424742 1.29412,-5.383341 1.11339,-7.552056 0,0 -0.70981,-2.464351 -1.49383,-3.161022 -1.10283,-0.979964 -2.370063,-1.477216 -4.192018,-0.110754 -1.915074,2.280518 -2.202954,2.828356 -3.28557,4.677193 -1.843783,4.543992 -3.447047,6.083518 -4.050263,10.104949 -0.523131,3.487547 -1.451271,6.008369 -1.331683,9.731711 0.185172,5.76524 2.421001,13.715571 9.358471,7.897824 1.554123,-1.303281 3.911033,-2.514238 4.994893,-4.248415 1.35847,-2.173547 1.97446,-4.711296 3.08911,-7.16351 0.51873,-1.141219 6.98778,-23.360569 7.50651,-24.501788" />
  </g>
  <g
     inkscape:groupmode="layer"
     id="layer8"
     inkscape:label="Path4"
     style="display:inline"
     transform="translate(-35.325315,-13.258384)">
    <path
       style="fill:#000000;fill-rule:nonzero;stroke:none;stroke-width:0.264583px;stroke-linecap:butt;stroke-linejoin:miter;stroke-opacity:1"
       d="m 112.6945,37.641694 c -0.009,0.03289 -3.5e-4,0.0012 -0.01,0.03412 -0.0562,0.198603 -0.61994,2.216382 -1.17415,4.12233 -0.2606,0.896226 -0.48931,1.664142 -0.6701,2.243586 -0.0734,0.235195 -0.12796,0.404427 -0.17207,0.53829 -0.0378,0.114712 -0.0631,0.183863 -0.0512,0.16542 0.006,-0.0087 0.0193,-0.03708 0.0553,-0.102952 0.0254,-0.04646 0.0986,-0.179302 0.21335,-0.338598 0.0587,-0.08153 0.15043,-0.201112 0.27622,-0.334638 0.11914,-0.126471 0.31635,-0.316398 0.59582,-0.500414 0.2874,-0.189228 0.70688,-0.407317 1.28125,-0.505968 0.28758,-0.04939 0.59758,-0.06411 0.92044,-0.03035 0.32116,0.03358 0.62597,0.112107 0.90711,0.225316 0.55363,0.22293 0.93978,0.548157 1.18308,0.80529 0.23634,0.249786 0.38618,0.485843 0.47158,0.635813 0.15768,0.276909 0.23029,0.50264 0.2349,0.516786 0.009,0.02782 0.006,0.02177 -0.004,-0.0047 -0.006,-0.01471 -0.0392,-0.103186 -0.08,-0.196381 -0.0362,-0.08288 -0.12979,-0.291543 -0.28874,-0.531437 -0.0831,-0.12537 -0.21012,-0.299399 -0.38942,-0.484931 -0.17754,-0.183715 -0.44457,-0.418461 -0.81395,-0.619497 -0.38117,-0.207458 -0.85654,-0.369953 -1.40388,-0.403451 -0.54513,-0.03336 -1.03903,0.06879 -1.44958,0.232264 -0.39388,0.156829 -0.6909,0.361164 -0.8951,0.529536 -0.20385,0.168076 -0.35397,0.332286 -0.45635,0.456569 -0.19545,0.237278 -0.31616,0.450896 -0.37595,0.563629 -0.0662,0.124813 -0.11267,0.231488 -0.14187,0.302624 -0.0566,0.137789 -0.0942,0.255244 -0.1158,0.325834 -0.0235,0.07692 -0.0441,0.151681 -0.0616,0.218093 -0.0332,0.125673 -0.0723,0.284984 -0.11467,0.460881 -0.042,0.174072 -0.0957,0.399768 -0.16031,0.671633 -0.48134,2.026656 -0.0817,0.34421 -0.56302,2.370861 -0.33267,1.550308 -0.85898,3.498972 -1.3741,5.710796 a 0.02935319,0.62796845 14.330135 0 0 -0.0629,0.305035 c -0.14833,0.995799 -0.26972,1.749317 -0.3689,2.319782 -0.0988,0.568366 -0.16849,0.914384 -0.21639,1.134097 -0.0222,0.101957 -0.0372,0.163417 -0.0397,0.181662 -0.003,0.01978 0.007,-0.0085 0.0414,-0.08023 0.0344,-0.07264 0.0992,-0.199748 0.19163,-0.337471 0.0477,-0.07105 0.0955,-0.134776 0.13942,-0.188468 0.0425,-0.05195 0.07,-0.08088 0.0651,-0.07314 -0.006,0.0088 -0.0485,0.05926 -0.11974,0.155049 -0.0745,0.100231 -0.16309,0.229969 -0.25078,0.389667 -0.0867,0.157914 -0.15492,0.31291 -0.2087,0.461273 -0.0521,0.143687 -0.0878,0.273444 -0.11305,0.381011 -0.0474,0.20219 -0.0702,0.381718 -0.0834,0.505386 -0.0139,0.130405 -0.0242,0.269194 -0.0329,0.405967 -0.0168,0.262143 -0.0362,0.652307 -0.0607,1.151525 0.0804,-1.632913 -0.18419,3.718301 -0.10383,2.085388 -0.12635,2.974885 -0.62584,6.186267 -0.87663,9.68172 a 0.02090009,0.45781628 5.4966918 0 0 -0.01,0.188817 c -0.007,0.699201 -0.009,1.204959 -0.004,1.558362 0.002,0.174773 0.006,0.324081 0.0114,0.452658 0.003,0.06096 0.007,0.140229 0.0139,0.223807 0.003,0.04091 0.009,0.105631 0.0191,0.180598 0.005,0.03838 0.0127,0.09195 0.0239,0.154668 0.0104,0.05773 0.0297,0.156182 0.0629,0.275044 0.017,0.06111 0.0423,0.144126 0.0784,0.240388 0.0345,0.09205 0.0917,0.230511 0.1803,0.389546 0.0825,0.148133 0.23955,0.400326 0.50227,0.656335 0.13701,0.133504 0.3203,0.285263 0.55552,0.422233 0.23881,0.139039 0.53035,0.262176 0.86995,0.330815 0.34393,0.06949 0.69426,0.0743 1.03383,0.01764 0.33479,-0.05586 0.62188,-0.165022 0.8554,-0.287577 0.44625,-0.234205 0.72728,-0.532358 0.87256,-0.708176 0.15468,-0.187215 0.25498,-0.357602 0.3129,-0.465277 0.0614,-0.114059 0.10449,-0.212967 0.13287,-0.283247 0.0553,-0.136889 0.0885,-0.250166 0.10571,-0.312814 0.0191,-0.0694 0.0323,-0.127836 0.0409,-0.168708 0.0169,-0.08032 0.0274,-0.146857 0.0333,-0.18792 0.0121,-0.08329 0.0197,-0.159319 0.0246,-0.212302 0.005,-0.0577 0.0101,-0.118159 0.0143,-0.175383 0.008,-0.112988 0.017,-0.249833 0.0254,-0.388596 0.009,-0.14124 0.0179,-0.302119 0.0275,-0.46998 0.0396,-0.691669 0.0862,-1.539249 0.13783,-2.339292 0.0256,-0.396691 0.051,-0.757513 0.0756,-1.060167 0.0123,-0.151693 0.0236,-0.277938 0.0339,-0.383382 0.01,-0.102833 0.0193,-0.179709 0.0201,-0.196231 l -0.006,0.03658 c 0.42395,-2.409465 0.78839,-4.672013 1.35439,-6.870778 0.57391,-2.229549 1.29884,-4.14548 2.31357,-5.716896 0.92399,-1.432764 1.6483,-2.850132 2.2376,-3.949783 0.49258,-0.91918 0.92877,-1.695318 1.43501,-2.444378 0.16834,-0.24907 0.34666,-0.498252 0.53812,-0.747512 0.27957,-0.36799 0.44073,-0.556893 0.73258,-0.921279 0.25015,-0.312338 0.52281,-0.666029 0.84577,-1.156145 0.27855,-0.424714 0.52086,-0.812737 0.74052,-1.140896 0.21809,-0.325816 0.40186,-0.576095 0.57963,-0.778933 0.16886,-0.192662 0.32032,-0.328374 0.46929,-0.430854 0.14154,-0.09737 0.31233,-0.18656 0.54216,-0.259972 -0.13706,0.05215 -0.20157,0.06052 -0.16592,0.06435 0.0203,0.0022 0.17319,0.0041 0.37728,-0.0081 0.21386,-0.01709 0.32243,-0.03956 0.3625,-0.04307 0.015,-0.0013 0.0339,0.0069 -0.10807,0.03072 -0.0982,0.0165 -0.35304,0.05062 -0.6899,0.0023 -0.17615,-0.02527 -0.38592,-0.07493 -0.60885,-0.166597 -0.22661,-0.09318 -0.45137,-0.223152 -0.66056,-0.394025 -0.21813,-0.180113 -0.35929,-0.362628 -0.44418,-0.491382 -0.085,-0.128988 -0.13425,-0.235427 -0.15924,-0.294431 -0.0482,-0.113779 -0.0488,-0.148459 -0.0414,-0.0853 0.007,0.05941 0.0161,0.149784 0.0218,0.293251 0.005,0.137342 0.006,0.294675 0.002,0.468155 -0.008,0.348531 -0.0359,0.71327 -0.0713,1.022442 -0.0174,0.152149 -0.0358,0.282561 -0.0522,0.378597 -0.008,0.04738 -0.0153,0.08414 -0.0206,0.105957 -0.004,0.01691 -0.009,0.03135 -0.004,-8.3e-4 -0.0423,0.122677 -0.0954,0.258814 -0.22044,0.543614 -0.10078,0.229579 -0.2886,0.642152 -0.43889,1.046226 -0.53288,1.480816 -1.19631,3.037746 -1.77076,4.726841 -0.15907,0.449944 -0.27284,0.906132 -0.34353,1.17457 -0.0847,0.321582 -0.13792,0.49861 -0.19167,0.617336 -0.0916,0.235801 -0.18935,0.448705 -0.35727,0.826563 -0.15625,0.351585 -0.35672,0.811212 -0.52339,1.321966 -0.0243,0.0756 -0.0477,0.152106 -0.0705,0.228961 -0.0236,0.07938 -0.0487,0.1667 -0.0755,0.261687 -0.0542,0.192 -0.11626,0.419983 -0.18343,0.671929 -0.13769,0.516526 -0.29786,1.138505 -0.45266,1.754403 -0.16063,0.639055 -0.31771,1.280334 -0.44445,1.817643 -0.0653,0.276642 -0.12507,0.536748 -0.17413,0.760356 -0.025,0.114104 -0.0488,0.225533 -0.0696,0.328941 -0.0205,0.101671 -0.0419,0.213356 -0.0596,0.322369 -0.37236,2.327571 -0.41234,4.846264 -0.4331,6.296778 -0.0165,0.996695 -0.10326,1.849239 -0.0897,2.712833 0.0109,0.692404 0.0763,1.260903 0.16747,1.754543 0.0131,0.07104 0.0265,0.138685 0.0398,0.20274 0.18392,0.886139 0.46325,1.567341 0.53312,1.742024 a 3.38534,3.38534 90 0 0 6.2864,-2.514614 c -0.0368,-0.09199 -0.13115,-0.342785 -0.19571,-0.629978 -0.005,-0.0206 -0.009,-0.04236 -0.0141,-0.06521 -0.03,-0.1448 -0.065,-0.350726 -0.0807,-0.670446 -0.0212,-0.433217 0.0297,-1.154231 0.0132,-2.531887 -0.0224,-1.496764 -0.0395,-3.553554 0.19123,-5.357589 -0.003,0.0035 0.002,-0.03529 0.01,-0.08864 0.008,-0.055 0.0206,-0.127845 0.0364,-0.215491 0.0314,-0.173118 0.075,-0.393593 0.12792,-0.649169 0.1029,-0.496484 0.23653,-1.102408 0.37802,-1.726021 0.13635,-0.600924 0.27494,-1.196036 0.39214,-1.692528 0.0582,-0.246467 0.10535,-0.444338 0.14657,-0.616684 0.0178,-0.07463 0.0378,-0.157932 0.0487,-0.204154 0.012,-0.05048 0.0213,-0.09065 0.0199,-0.09138 0.0436,-0.200254 0.11986,-0.436098 0.25289,-0.809651 0.10994,-0.308697 0.29315,-0.802761 0.4353,-1.3001 0.12928,-0.456165 0.20431,-0.889747 0.25289,-1.176843 0.0502,-0.296652 0.086,-0.503577 0.1084,-0.617247 0.43435,-1.429018 1.0333,-2.973058 1.59109,-4.686286 0.0617,-0.225788 0.14547,-0.447863 0.28544,-0.84416 0.12389,-0.350759 0.28925,-0.834032 0.39997,-1.376075 0.0218,-0.1027 0.039,-0.203279 0.0527,-0.291097 0.0141,-0.09073 0.0271,-0.185308 0.0389,-0.280049 0.0236,-0.189102 0.0453,-0.40155 0.0639,-0.62472 0.0369,-0.444395 0.0645,-0.976558 0.063,-1.517208 -7.4e-4,-0.272259 -0.009,-0.557985 -0.0288,-0.844038 -0.0197,-0.283417 -0.0525,-0.590042 -0.10781,-0.897752 -0.0534,-0.297043 -0.14023,-0.66615 -0.29422,-1.043045 -0.079,-0.193274 -0.18778,-0.418811 -0.33957,-0.650814 -0.15159,-0.231702 -0.36595,-0.500248 -0.66453,-0.747396 -0.23076,-0.188862 -0.4787,-0.33262 -0.72976,-0.43616 -0.24747,-0.102061 -0.48306,-0.158659 -0.68601,-0.188157 -0.38989,-0.05667 -0.70423,-0.0204 -0.86069,0.0038 -0.1699,0.02626 -0.27533,0.05763 -0.28839,0.06331 -0.0272,0.01184 0.0389,-0.0026 0.18734,-0.01346 -0.0618,0.01777 -0.17572,0.02699 -0.4161,0.06099 -0.2227,0.03149 -0.56415,0.08731 -0.94122,0.219366 -0.73316,0.247736 -1.37147,0.58324 -1.93278,0.985285 -0.56825,0.407017 -1.02706,0.86036 -1.40778,1.306193 -0.38354,0.449128 -0.70365,0.91005 -0.97042,1.315967 -0.27939,0.42513 -0.52055,0.818479 -0.75343,1.177959 -0.19702,0.306889 -0.35561,0.517541 -0.53832,0.745751 -0.2063,0.257678 -0.47407,0.574667 -0.79694,0.986897 -0.263,0.338867 -0.50454,0.672557 -0.72825,0.998721 -0.6662,0.971332 -1.21218,1.930964 -1.73642,2.881981 -0.66508,1.20652 -1.27373,2.357732 -2.06538,3.545632 -1.47009,2.225377 -2.40568,4.741718 -3.0877,7.266475 -0.66219,2.451374 -1.10209,4.981579 -1.5369,7.264734 a 3.0555083e-4,0.07512419 10.224825 0 0 -0.006,0.0366 c -0.028,0.153906 -0.0517,0.315934 -0.0719,0.469724 -0.0207,0.157878 -0.0406,0.328606 -0.0596,0.505845 -0.038,0.353544 -0.0751,0.755647 -0.11054,1.167057 -0.0574,0.665095 -0.13582,1.697664 -0.19318,2.362759 -0.0138,0.162523 -0.0268,0.309309 -0.0387,0.434738 -0.012,0.125489 -0.0228,0.228191 -0.0316,0.297273 -0.004,0.03383 -0.008,0.05886 -0.0103,0.06821 -0.002,0.0092 -0.004,0.0062 0.003,-0.04414 0.003,-0.02037 0.01,-0.06766 0.0236,-0.134289 0.007,-0.03374 0.0187,-0.08581 0.0363,-0.149881 0.0157,-0.0573 0.0475,-0.166076 0.10131,-0.299459 0.0277,-0.06852 0.0701,-0.165891 0.13072,-0.278609 0.0572,-0.106423 0.15686,-0.275747 0.31079,-0.462066 0.14465,-0.175063 0.42502,-0.472628 0.8706,-0.706484 0.23318,-0.12238 0.51995,-0.231427 0.85441,-0.287233 0.33923,-0.0566 0.68924,-0.0518 1.03261,0.01757 0.33951,0.06862 0.63072,0.191632 0.86905,0.330387 0.23506,0.136881 0.41804,0.288392 0.55463,0.421491 0.26219,0.255489 0.41859,0.506823 0.5005,0.653849 0.088,0.157929 0.14455,0.295043 0.17848,0.385489 0.0355,0.09466 0.0602,0.175828 0.0767,0.234841 0.032,0.114633 0.0502,0.207951 0.0595,0.259428 0.0102,0.05643 0.0168,0.102902 0.0208,0.132935 0.007,0.0564 0.012,0.104438 0.0134,0.118346 0.004,0.03847 0.004,0.04077 0.005,0.02114 10e-4,-0.03629 0.002,-0.14104 0.005,-0.289519 0.005,-0.295312 0.0144,-0.713921 0.0298,-1.345328 0.30536,-3.133538 0.89751,-6.370086 1.13395,-9.749644 0.0571,-0.9009 0.10091,-1.568611 0.13646,-2.064848 0.036,-0.502885 0.0631,-0.821322 0.0845,-1.005237 0.0103,-0.089 0.0191,-0.141653 0.0223,-0.142357 0.003,-6.51e-4 0.003,0.0507 -0.0301,0.194427 -0.0161,0.0707 -0.0424,0.169719 -0.0848,0.287355 -0.044,0.122158 -0.10205,0.255462 -0.1781,0.394329 -0.077,0.140655 -0.15433,0.25387 -0.21699,0.338571 -0.0593,0.08017 -0.0897,0.115836 -0.0818,0.10892 0.008,-0.0069 0.0514,-0.05507 0.10805,-0.125182 0.0592,-0.07335 0.12324,-0.159258 0.18831,-0.257294 0.12732,-0.191813 0.23157,-0.391451 0.31093,-0.568975 0.078,-0.174442 0.1418,-0.347186 0.19547,-0.509372 0.0548,-0.165536 0.10638,-0.342607 0.15646,-0.532124 0.10079,-0.381497 0.20914,-0.866034 0.33153,-1.495407 0.1173,-0.603229 0.25051,-1.355268 0.40338,-2.295217 0.56588,-1.964999 1.19754,-3.912306 1.65938,-5.60973 0.2736,-1.091457 0.46083,-1.825052 0.59331,-2.328089 0.069,-0.262112 0.12268,-0.459649 0.16407,-0.605636 0.0426,-0.150193 0.0725,-0.246105 0.0858,-0.280253 0.006,-0.01632 0.01,-0.01937 0.003,0.0068 -0.005,0.01792 -0.0244,0.08743 -0.0697,0.198535 -0.0228,0.05603 -0.0634,0.15016 -0.12434,0.265239 -0.0545,0.102835 -0.17032,0.30897 -0.36141,0.540982 -0.10016,0.121613 -0.24818,0.283686 -0.45,0.450096 -0.20221,0.16673 -0.49731,0.369896 -0.88934,0.525996 -0.40872,0.162738 -0.90086,0.264603 -1.44429,0.231346 -0.54565,-0.03339 -1.01939,-0.195384 -1.39901,-0.40199 -0.3678,-0.20018 -0.63332,-0.433717 -0.80939,-0.615901 -0.17785,-0.184029 -0.30349,-0.356233 -0.38518,-0.479516 -0.15615,-0.235643 -0.24716,-0.439142 -0.28082,-0.516044 -0.0367,-0.08378 -0.0707,-0.172404 -0.0724,-0.176694 -0.008,-0.01956 -0.008,-0.01792 0.003,0.01715 0.009,0.02803 0.0892,0.271044 0.25318,0.558849 0.0889,0.15614 0.24262,0.39764 0.48313,0.651807 0.24755,0.261604 0.6383,0.590215 1.19696,0.815165 0.28368,0.114228 0.59114,0.193423 0.91505,0.227289 0.32568,0.03405 0.63859,0.01923 0.92921,-0.03069 0.58051,-0.09972 1.00668,-0.320609 1.30132,-0.514637 0.28687,-0.188911 0.49202,-0.385762 0.61982,-0.52149 0.1346,-0.14296 0.2357,-0.274254 0.30463,-0.370201 0.13643,-0.189889 0.23196,-0.360948 0.2856,-0.461526 0.0613,-0.115029 0.11228,-0.222218 0.15162,-0.308858 0.0828,-0.182403 0.15982,-0.374773 0.23062,-0.562113 0.0802,-0.212261 0.16584,-0.453757 0.25686,-0.721497 0.22372,-0.658091 0.48861,-1.50045 0.76458,-2.406928 0.59868,-1.966491 1.17856,-3.990514 1.23596,-4.191163 0.004,-0.01233 0.006,-0.02216 0.01,-0.03449 a 3.4626031,3.4626031 90 0 0 -6.66078,-1.895374 z"
       id="path77077"
       inkscape:path-effect="#path-effect77098"
       inkscape:original-d="m 116.02489,38.589381 c -4.02327,14.138706 -1.29478,2.677532 -3.3771,11.201071 -0.46357,1.892919 -1.04486,3.828275 -1.53247,5.71514 -1.26907,8.180496 -0.85924,1.008513 -1.26907,8.180496 -0.1872,3.276124 -0.73649,6.484609 -1.00855,9.749356 -0.0971,5.550501 0.20635,-1.820728 0.44825,-3.249787 0.84521,-4.616177 1.62775,-9.711375 4.14628,-13.559449 1.7033,-2.60248 2.57721,-4.963405 4.37039,-7.284 0.60395,-0.781582 0.9498,-1.127643 1.45681,-1.905047 1.03746,-1.590778 1.78852,-3.061528 3.69803,-3.698031 0.25057,-0.08353 0.52161,-0.08578 0.78443,-0.112062 0.1115,-0.01116 0.25009,-0.07174 0.33618,0 0.64384,0.536535 0.36723,3.512521 0.22413,4.146278 -0.14833,0.656867 -0.45477,1.267769 -0.67237,1.905044 -0.53834,1.576539 -1.16813,3.121563 -1.68093,4.706589 -0.18963,0.586142 -0.26353,1.205269 -0.44824,1.792983 -0.22678,0.721561 -0.56851,1.404287 -0.78444,2.129171 -0.19133,0.642337 -1.21299,4.814858 -1.34473,5.71514 -0.27716,1.893922 -0.31217,3.91953 -0.31217,5.827199 0,2.009233 -0.29178,3.265448 0.46399,5.154833"
       sodipodi:nodetypes="cccsccssssssscsssssc" />
  </g>
  <g
     inkscape:groupmode="layer"
     id="layer10"
     inkscape:label="Path6"
     transform="translate(-35.325315,-13.258384)"
     style="display:inline">
    <path
       style="fill:#000000;fill-rule:nonzero;stroke:none;stroke-width:0.264583px;stroke-linecap:butt;stroke-linejoin:miter;stroke-opacity:1"
       d="m 133.1559,35.469874 c -0.42916,0.430244 -0.91599,0.942276 -1.27347,1.402212 -0.14344,0.184548 -0.28216,0.380611 -0.40311,0.587198 -0.11179,0.190926 -0.20892,0.39149 -0.28561,0.608355 -0.0718,0.202998 -0.11524,0.390524 -0.14481,0.56459 -0.0254,0.149659 -0.0416,0.298934 -0.0535,0.398661 -0.0123,0.103988 -0.0242,0.195483 -0.043,0.297301 -0.0164,0.08855 -0.0397,0.193676 -0.0764,0.322392 -0.19633,0.576456 -0.37545,1.134056 -0.52563,1.678304 -0.14666,0.531511 -0.26807,1.058054 -0.35925,1.610324 -0.0362,0.219522 -0.0675,0.441714 -0.0938,0.669171 -0.0366,0.316273 -0.0645,0.646512 -0.0831,0.99987 -0.0292,0.556991 -0.0348,1.166532 -0.016,1.873558 l -6.4e-4,-0.01211 c 0.0118,1.011193 0.0502,1.950661 0.18183,2.966661 0.12001,0.92628 0.31266,1.889307 0.62511,3.115515 0.019,0.08624 0.0401,0.174585 0.0663,0.276376 0.0259,0.100462 0.0562,0.212169 0.0912,0.336088 0.0691,0.244835 0.15563,0.534864 0.25592,0.861618 0.19735,0.642971 0.44092,1.405139 0.69406,2.196045 0.24263,0.758035 0.49448,1.543792 0.69145,2.182411 0.0974,0.31565 0.18311,0.601143 0.24848,0.832447 0.0324,0.114695 0.06,0.216888 0.0812,0.301522 0.0208,0.08333 0.0361,0.152828 0.0413,0.193056 0.0567,0.221954 0.12058,0.43923 0.19707,0.647133 0.077,0.209288 0.17102,0.421492 0.29532,0.634525 0.12826,0.219838 0.27281,0.412936 0.43498,0.590994 0.15243,0.16737 0.29,0.288065 0.34879,0.349915 0.0566,0.05959 0.0429,0.06947 -0.0239,0.03409 -0.0675,-0.03573 -0.14722,-0.09663 -0.2187,-0.158918 -0.0681,-0.05932 -0.11082,-0.103326 -0.13017,-0.107937 -0.0189,-0.0045 -0.0152,0.02945 0.004,0.110666 l -0.076,-0.198504 c 0.15117,0.52873 0.28497,0.990021 0.41419,1.34252 0.0703,0.191715 0.15107,0.386002 0.25332,0.585054 0.10697,0.208238 0.21724,0.382779 0.33056,0.54561 0.10509,0.151011 0.18123,0.251267 0.21963,0.312709 0.0375,0.06006 0.0469,0.09047 0.0613,0.127102 0.0379,0.0962 0.0838,0.172604 0.27473,0.527649 l -0.34685,-0.78946 c 0.10992,0.48364 0.21957,0.882848 0.30582,1.207166 0.0898,0.337661 0.14167,0.549134 0.18304,0.774148 0.0369,0.200456 0.0668,0.424367 0.0907,0.695187 0.0248,0.28137 0.0465,0.65419 0.0544,1.164649 a 0.08378485,0.60242784 2.1363375 0 0 0.0356,0.351687 c -0.0611,-0.187552 -0.056,-0.06851 -0.10019,0.189707 -0.0457,0.267363 -0.13263,0.627434 -0.33986,1.016843 a 0.17745028,0.9437214 34.896569 0 0 -0.11909,0.264389 c 0.0294,-0.08751 0.0419,-0.06159 -0.0747,0.0357 -0.0335,0.02797 -0.0751,0.05955 -0.12565,0.09332 -0.11555,0.07716 -0.26614,0.157619 -0.4482,0.227246 -0.25825,0.09877 -0.53259,0.157617 -0.78553,0.172184 -0.25029,0.01441 -0.4063,-0.01764 -0.48339,-0.03749 -0.0147,-0.0016 0.0258,0.01908 0.0692,0.05916 0.0468,0.04322 0.0828,0.09118 0.1012,0.128965 0.0324,0.06643 -0.0304,0.01277 -0.0662,-0.216596 -0.0372,-0.238301 -0.0379,-0.579338 0.0248,-0.994992 0.0549,-0.363897 0.14993,-0.728633 0.26554,-1.057264 0.48555,-0.882587 0.87134,-1.713026 1.17511,-2.331727 0.34276,-0.698103 0.62567,-1.225722 0.973,-1.698233 0.24912,-0.267932 0.44947,-0.489999 0.61386,-0.679768 0.18552,-0.214152 0.35105,-0.416799 0.49483,-0.614753 0.0732,-0.100822 0.15822,-0.224278 0.24158,-0.363291 0.0848,-0.141317 0.18132,-0.320932 0.26607,-0.533769 0.0902,-0.226491 0.14778,-0.44269 0.18114,-0.637637 0.0339,-0.198132 0.0272,-0.251434 0.0238,-0.242399 -0.008,0.02161 -0.031,0.136957 -0.0663,0.253514 -0.0373,0.123046 -0.0794,0.226661 -0.1202,0.30865 -0.0777,0.156392 -0.11896,0.182761 -0.0897,0.118036 0.0585,-0.129419 0.36704,-0.590039 1.02237,-1.408601 l -0.0211,0.02485 c 0.17531,-0.235579 0.43898,-0.60017 0.65797,-0.902017 0.24456,-0.337087 0.49531,-0.681867 0.75446,-1.033193 0.26117,-0.354065 0.50369,-0.677856 0.72856,-0.97088 0.11316,-0.147467 0.20877,-0.270125 0.29842,-0.384019 0.0791,-0.100484 0.16633,-0.20986 0.20155,-0.25732 l -0.0479,0.04376 c -0.47359,0.432582 2.05572,-1.878153 1.58212,-1.445571 0.17095,-0.156373 0.31868,-0.2917 0.41128,-0.377243 0.0948,-0.08759 0.16258,-0.150961 0.16554,-0.160354 0.002,-0.006 -0.0123,0.0024 -0.0685,0.03594 -0.0219,0.01308 -0.0805,0.04816 -0.15101,0.08521 -0.0374,0.01963 -0.0935,0.04795 -0.16276,0.07824 -0.0648,0.02832 -0.17524,0.07344 -0.317,0.113248 -0.0731,0.02054 -0.16946,0.04388 -0.2839,0.06153 -0.11259,0.01737 -0.26599,0.03288 -0.44783,0.02665 -0.18103,-0.0062 -0.42252,-0.03505 -0.69215,-0.127222 -0.27765,-0.09491 -0.57919,-0.25552 -0.85365,-0.510524 -0.27669,-0.257081 -0.46911,-0.557575 -0.58997,-0.858366 -0.11701,-0.291254 -0.1577,-0.55804 -0.16842,-0.762811 -0.0107,-0.204217 0.007,-0.376283 0.0271,-0.501766 0.0206,-0.127489 0.0486,-0.233848 0.0731,-0.3137 0.0476,-0.154966 0.10168,-0.272785 0.13536,-0.340868 0.0363,-0.07333 0.0698,-0.130851 0.0935,-0.169469 0.0467,-0.07596 0.0856,-0.127808 0.10561,-0.153348 0.0438,-0.05597 0.0644,-0.07301 0.0701,-0.07587 0.007,-0.0037 0.004,0.0057 -0.004,0.01947 -0.0161,0.02831 -0.0526,0.07914 -0.0933,0.13385 -0.0403,0.05409 -0.0913,0.120876 -0.14033,0.185694 -0.0251,0.03325 -0.0521,0.06903 -0.0798,0.106437 -0.0262,0.03527 -0.0604,0.08171 -0.0951,0.130243 -0.0177,0.02469 -0.04,0.05635 -0.0637,0.091 -0.0224,0.03273 -0.056,0.08278 -0.0921,0.141319 -0.0304,0.04937 -0.0957,0.157702 -0.15927,0.298096 -0.0325,0.07183 -0.0817,0.189399 -0.12372,0.339116 -0.0217,0.0772 -0.0455,0.177165 -0.0625,0.295105 -0.0169,0.116596 -0.0302,0.271163 -0.0205,0.452244 0.01,0.181505 0.0437,0.412448 0.13639,0.665367 0.0951,0.259533 0.24735,0.528207 0.47323,0.770434 0.2263,0.242679 0.48591,0.415214 0.74399,0.529365 0.25145,0.11122 0.485,0.160182 0.67054,0.180623 0.18495,0.02038 0.34384,0.01487 0.46395,0.0034 0.12153,-0.01159 0.22466,-0.03136 0.30432,-0.05014 0.15479,-0.0365 0.27558,-0.08236 0.34967,-0.113281 0.14639,-0.06108 0.25388,-0.124493 0.30637,-0.156734 0.0613,-0.03763 0.11104,-0.07236 0.14671,-0.09827 0.0703,-0.05105 0.13314,-0.102604 0.18203,-0.143762 0.0514,-0.04329 0.10698,-0.09176 0.16178,-0.140148 0.10616,-0.09374 0.25091,-0.223918 0.4086,-0.366303 0.30944,-0.279408 0.81212,-0.735544 1.44114,-1.307087 0.31996,-0.299622 0.56439,-0.538988 0.75421,-0.734971 0.18932,-0.195473 0.33427,-0.357972 0.4545,-0.50767 0.0595,-0.07406 0.12678,-0.162265 0.19283,-0.258997 0.0553,-0.08103 0.16662,-0.249461 0.25885,-0.463912 0.0488,-0.113559 0.11438,-0.289916 0.15151,-0.511662 0.0192,-0.114711 0.0324,-0.250636 0.0285,-0.402803 -0.004,-0.153765 -0.0252,-0.323235 -0.0743,-0.500849 -0.0496,-0.179333 -0.12381,-0.352959 -0.22211,-0.515304 -0.098,-0.16186 -0.21081,-0.297421 -0.3261,-0.408807 -0.22511,-0.217468 -0.44924,-0.33291 -0.57838,-0.389604 -0.13238,-0.05812 -0.22365,-0.08034 -0.23546,-0.08186 -0.0183,-0.0024 0.0211,0.0088 0.1524,0.06883 0.0607,0.02776 0.16103,0.07659 0.27534,0.151037 0.11524,0.07506 0.27177,0.19352 0.42436,0.370414 0.15904,0.184382 0.3025,0.41964 0.3909,0.703611 0.0881,0.282911 0.10231,0.552508 0.0784,0.783607 -0.0232,0.223737 -0.0812,0.4044 -0.13339,0.531635 -0.0526,0.128078 -0.10998,0.227699 -0.15402,0.296218 -0.0852,0.132529 -0.16531,0.218302 -0.20356,0.256877 -0.0445,0.04482 -0.0774,0.07122 -0.0957,0.08427 -0.0198,0.01417 -0.0309,0.01894 -0.0355,0.01847 -0.01,-9.69e-4 0.005,-0.0229 0.0334,-0.05448 0.0292,-0.03254 0.0744,-0.07723 0.13437,-0.132716 0.12162,-0.112581 0.30443,-0.270263 0.55761,-0.480082 l -0.11158,0.07847 c 0.48335,-0.347223 1.00094,-0.7425 1.49503,-1.123809 0.54518,-0.420737 1.01924,-0.791214 1.54533,-1.192231 0.53087,-0.404665 1.0268,-0.772649 1.49529,-1.099425 0.49607,-0.346016 0.92689,-0.621542 1.30138,-0.83121 l -0.24574,0.0925 c 0.0942,-0.03276 0.16789,-0.07059 0.21239,-0.09451 0.0502,-0.02697 0.10052,-0.0569 0.14328,-0.08284 0.0928,-0.05634 0.18487,-0.114591 0.28354,-0.175741 0.21803,-0.135118 0.43877,-0.2679 0.67363,-0.400345 0.26219,-0.147849 0.48549,-0.263169 0.67344,-0.351263 0.10889,-0.05104 0.1722,-0.07751 0.23355,-0.104275 0.0592,-0.02584 0.0782,-0.03478 0.0455,-0.04417 -0.0503,-0.01444 0,0 0,0 l 1.20442,-1.204425 -1.20442,-1.204424 c 0,0 0.29769,0.01444 0,0 -0.20006,-0.0097 -0.39745,0.0079 -0.57722,0.03539 -0.16702,0.02553 -0.33822,0.06263 -0.51014,0.106871 -0.31173,0.08022 -0.63532,0.186281 -0.96097,0.300402 -0.28848,0.101097 -0.57325,0.207406 -0.79669,0.281557 -0.10318,0.03424 -0.19654,0.06243 -0.25504,0.0732 -0.028,0.0052 -0.0495,0.0065 -0.0532,5.4e-4 -0.003,-0.0046 0.007,-0.02001 0.0734,-0.04541 l -0.24574,0.0925 c -0.53766,0.228271 -1.10452,0.521844 -1.69123,0.856714 -0.55811,0.318544 -1.13123,0.672739 -1.71569,1.044348 -0.55613,0.3536 -1.1169,0.719596 -1.65843,1.0662 -0.52117,0.333568 -1.02375,0.648452 -1.47594,0.908082 a 5.8021316e-4,0.14055843 55.119603 0 0 -0.11158,0.07847 c -0.27872,0.194214 -0.48048,0.33155 -0.64403,0.44085 -0.0865,0.05782 -0.14115,0.09373 -0.21023,0.139478 -0.0573,0.03797 -0.12215,0.081 -0.17833,0.121654 -0.0295,0.02133 -0.0637,0.0471 -0.10045,0.07742 -0.0352,0.02908 -0.0837,0.07137 -0.13815,0.127483 -0.0487,0.0502 -0.13706,0.146798 -0.22702,0.287116 -0.0465,0.07261 -0.10584,0.175953 -0.15974,0.307336 -0.0536,0.130547 -0.11225,0.314169 -0.13571,0.540544 -0.0242,0.233738 -0.01,0.505665 0.079,0.790655 0.0891,0.286047 0.23361,0.523129 0.39406,0.709126 0.15403,0.178539 0.31232,0.298429 0.42962,0.374788 0.11637,0.07576 0.21899,0.125715 0.28221,0.154567 0.13633,0.06223 0.18149,0.07517 0.16924,0.07479 -0.007,-2.25e-4 -0.0893,-0.01899 -0.21742,-0.07507 -0.12336,-0.05401 -0.34204,-0.166105 -0.56272,-0.379208 -0.11309,-0.109214 -0.22393,-0.242326 -0.32029,-0.401413 -0.0967,-0.159576 -0.16953,-0.330108 -0.21822,-0.505965 -0.0482,-0.174143 -0.069,-0.33976 -0.0728,-0.489231 -0.004,-0.147878 0.009,-0.27908 0.0272,-0.388552 0.0352,-0.211204 0.0967,-0.375385 0.13867,-0.473931 0.074,-0.173864 0.16966,-0.324751 0.17975,-0.341768 0.0285,-0.04804 0.0336,-0.06177 0.0188,-0.05621 -0.0254,0.0096 -0.13092,0.09553 -0.29224,0.228184 -0.20835,0.171327 -0.50469,0.41639 -0.71304,0.587715 -0.65711,0.560939 -1.12203,0.946793 -1.43487,1.194727 -0.15483,0.122706 -0.27191,0.211115 -0.34778,0.263711 -0.0377,0.02611 -0.0653,0.04349 -0.0784,0.04924 -0.013,0.0057 -0.0137,8.24e-4 0.0215,-0.02689 0.0158,-0.01246 0.0464,-0.03506 0.0934,-0.06439 0.038,-0.02369 0.13235,-0.08048 0.26953,-0.13782 0.0693,-0.02896 0.18583,-0.07343 0.33706,-0.109107 0.0779,-0.01837 0.17936,-0.03786 0.29941,-0.04932 0.11862,-0.01132 0.27617,-0.01683 0.45993,0.0034 0.18435,0.02031 0.41685,0.069 0.66741,0.179823 0.25719,0.113752 0.51604,0.285758 0.74172,0.527778 0.22527,0.241568 0.37703,0.509455 0.47182,0.768076 0.0924,0.252006 0.12619,0.48191 0.1358,0.662253 0.01,0.17992 -0.004,0.333204 -0.0203,0.448393 -0.0169,0.116535 -0.0403,0.214977 -0.0615,0.290534 -0.0411,0.14641 -0.0888,0.260274 -0.11938,0.327874 -0.0594,0.131445 -0.11931,0.230674 -0.14185,0.267679 -0.0266,0.0437 -0.0544,0.08637 -0.064,0.1012 -0.0138,0.02139 -0.0214,0.03352 -0.0261,0.04224 -0.009,0.01617 -0.005,0.01688 0.004,0.011 0.009,-0.0058 0.0251,-0.01883 0.0436,-0.03474 0.0355,-0.03057 0.0902,-0.08035 0.14239,-0.128771 0.0507,-0.04706 0.11677,-0.10915 0.17557,-0.167223 0.0301,-0.02975 0.0658,-0.06579 0.10224,-0.104972 0.0328,-0.03525 0.086,-0.09423 0.14506,-0.171674 0.0291,-0.03815 0.0763,-0.102569 0.12853,-0.187883 0.0266,-0.0435 0.0627,-0.105597 0.10086,-0.182931 0.0356,-0.07211 0.0912,-0.193556 0.13971,-0.35162 0.025,-0.08141 0.0533,-0.189209 0.0742,-0.318016 0.0205,-0.126802 0.0381,-0.300066 0.0273,-0.505357 -0.0108,-0.205844 -0.0517,-0.473581 -0.16896,-0.765538 -0.12124,-0.301733 -0.31413,-0.602923 -0.59143,-0.860571 -0.27507,-0.255571 -0.57736,-0.416617 -0.85591,-0.511834 -0.27052,-0.09247 -0.51306,-0.121496 -0.69528,-0.127738 -0.18303,-0.0063 -0.33776,0.0093 -0.45184,0.02694 -0.11592,0.01789 -0.21387,0.0416 -0.28882,0.06265 -0.14537,0.04084 -0.25994,0.08754 -0.32959,0.11803 -0.0742,0.03249 -0.13561,0.06351 -0.17919,0.08653 -0.0846,0.04466 -0.1545,0.0871 -0.19592,0.112808 -0.0841,0.05221 -0.1603,0.10403 -0.21059,0.138961 -0.1102,0.07653 -0.22561,0.162123 -0.35986,0.266437 -0.13603,0.105697 -0.2989,0.236504 -0.4974,0.40009 -0.39529,0.325768 -0.93722,0.785972 -1.68065,1.430419 a 7.9293187e-4,0.04756342 48.549327 0 0 -0.0479,0.04378 c -0.1602,0.133145 -0.31897,0.276036 -0.47252,0.420672 -0.15424,0.145293 -0.31106,0.299759 -0.46785,0.458663 -0.31176,0.315967 -0.63437,0.660636 -0.9466,0.999576 -0.28245,0.30663 -0.60495,0.662469 -0.88741,0.969099 -0.27008,0.293367 -0.51297,0.551789 -0.6825,0.714165 a 3.6256817e-4,0.02933937 40.974137 0 0 -0.0211,0.02486 c -0.72867,0.836198 -1.21906,1.430251 -1.52046,1.853048 -0.15712,0.220404 -0.32247,0.475535 -0.45742,0.7687 -0.0721,0.156736 -0.13421,0.320813 -0.18489,0.496594 -0.053,0.183842 -0.075,0.313449 -0.0923,0.390878 -0.004,0.019 -0.0248,0.06481 0.006,-0.124858 0.0253,-0.155463 0.0716,-0.330896 0.14117,-0.509157 0.0641,-0.164236 0.13029,-0.287058 0.17332,-0.363601 0.0431,-0.07661 0.065,-0.111721 0.0656,-0.120672 0.001,-0.01793 -0.0789,0.06352 -0.22912,0.210881 -0.19824,0.194476 -0.32589,0.320091 -0.67749,0.66356 a 7.6812582e-4,0.21938112 42.117306 0 0 -0.14578,0.160108 c -0.81373,0.899668 -1.39227,1.809723 -1.87713,2.625753 -0.54142,0.91122 -0.85412,1.500357 -1.37813,2.307426 a 0.11844635,1.0595767 20.588093 0 0 -0.21201,0.416682 c -0.33608,0.760585 -0.61205,1.610596 -0.78756,2.491162 -0.1776,0.891061 -0.26547,1.879488 -0.17075,2.883727 0.0966,1.024229 0.39304,2.156359 1.06687,3.199986 0.34474,0.533937 0.77697,1.025906 1.3009,1.450159 0.53052,0.429584 1.12437,0.764911 1.76293,1.008257 1.05034,0.401693 2.12756,0.531625 3.11177,0.499164 1.02089,-0.03367 2.01573,-0.243458 2.92042,-0.580543 0.65152,-0.242752 1.27887,-0.559787 1.85679,-0.948167 0.25783,-0.173271 0.51037,-0.363814 0.75362,-0.572368 0.76425,-0.655238 1.4617,-1.50595 1.90983,-2.580695 0.59916,-1.26907 0.81495,-2.459011 0.86834,-3.361559 0.0514,-0.868241 -0.0455,-1.487932 -0.10827,-1.715192 -0.0478,-0.561739 -0.11431,-1.061072 -0.20019,-1.519397 -0.1025,-0.546971 -0.22831,-1.012484 -0.36834,-1.433574 -0.13584,-0.408482 -0.27942,-0.75701 -0.39755,-1.040402 -0.12099,-0.290241 -0.22968,-0.545721 -0.33783,-0.84798 a 1.4457932,0.16208581 72.678011 0 0 -0.34686,-0.789464 c -0.32459,-0.47674 -0.6094,-0.827736 -0.85349,-1.084861 -0.12242,-0.128971 -0.23103,-0.230436 -0.29702,-0.284331 -0.0662,-0.05404 -0.082,-0.05462 -0.0643,-0.01186 0.0178,0.0429 0.0588,0.123935 0.0739,0.175643 0.0156,0.05337 0.007,0.07197 -0.0231,0.03743 -0.0602,-0.06836 -0.19506,-0.337253 -0.38634,-0.814774 a 0.18558654,0.00244444 68.291945 0 0 -0.076,-0.198505 c -0.11042,-0.22219 -0.22936,-0.434101 -0.36011,-0.633397 -0.13281,-0.202439 -0.28107,-0.396831 -0.44878,-0.577142 -0.17254,-0.18551 -0.34496,-0.33357 -0.50372,-0.44736 -0.15234,-0.109186 -0.26051,-0.166042 -0.28748,-0.167683 -0.0283,-0.0017 0.0247,0.05246 0.0945,0.140706 0.076,0.09612 0.13804,0.19105 0.17787,0.280255 0.0371,0.0831 0.0402,0.129772 0.0232,0.128158 -0.0173,-0.0016 -0.0547,-0.05174 -0.10214,-0.148979 -0.0387,-0.08996 -0.0703,-0.162525 -0.10897,-0.252503 -0.0411,-0.09588 -0.085,-0.199241 -0.13485,-0.317748 -0.1,-0.23782 -0.2148,-0.515094 -0.34314,-0.827871 -0.25974,-0.633021 -0.56517,-1.387803 -0.86492,-2.130043 -0.30766,-0.76181 -0.60975,-1.511446 -0.855,-2.114546 -0.12451,-0.306183 -0.23767,-0.582712 -0.32655,-0.796368 -0.0451,-0.10829 -0.086,-0.205476 -0.11889,-0.281666 -0.0326,-0.07543 -0.0614,-0.139875 -0.0774,-0.168779 -0.40157,-1.108269 -0.65692,-1.886515 -0.84047,-2.609224 -0.2012,-0.792201 -0.32127,-1.544747 -0.40426,-2.466738 a 0.00907179,1.6668046e-4 85.941141 0 0 -6.4e-4,-0.01211 c -0.0566,-0.636265 -0.0834,-1.14852 -0.086,-1.596251 -0.002,-0.282593 0.006,-0.539033 0.023,-0.779052 0.0119,-0.172825 0.0282,-0.340766 0.049,-0.506446 0.052,-0.414827 0.13277,-0.824029 0.24494,-1.262924 0.11844,-0.463392 0.27195,-0.959842 0.45923,-1.514468 a 0.07954629,0.58876397 25.163381 0 0 0.0213,-0.06757 c 0.0715,-0.248277 0.12042,-0.463227 0.15636,-0.651958 0.0369,-0.193656 0.0597,-0.358711 0.076,-0.476464 0.0187,-0.134673 0.0276,-0.194874 0.0377,-0.238881 0.009,-0.03894 0.0116,-0.03492 0.0143,-0.03549 0.004,-8.64e-4 0.007,-0.0085 0.0371,-0.05304 0.0338,-0.04995 0.0877,-0.124112 0.17899,-0.234267 0.24669,-0.297693 0.62323,-0.686284 1.05186,-1.116005 l -0.003,-2.291922 z"
       id="path77475"
       sodipodi:nodetypes="ccccsccccscccccccc"
       inkscape:path-effect="#path-effect77876"
       inkscape:original-d="m 134.30331,36.614384 c -2.19395,2.199514 -1.47255,1.965048 -1.92109,3.510609 -0.80289,2.364632 -1.0344,3.680361 -0.88959,6.261769 0.10037,2.051186 0.33906,3.333435 1.02604,5.579732 0.28499,0.929562 2.19516,6.099354 2.49964,7.03389 0.4224,1.296429 0.63546,0.5458 1.1571,1.762947 0.70659,2.086565 0.55413,1.109387 1.552,2.711702 0.4371,1.573585 0.86821,2.086637 0.98103,4.498117 0,0 0.23628,1.511543 -0.63119,3.236791 -0.82803,2.070094 -4.03841,3.225043 -6.25768,2.392818 -2.61175,-0.979406 -2.30054,-4.399383 -1.36926,-6.611155 1.07169,-1.776615 1.63121,-3.271712 2.795,-4.64522 2.47223,-2.528014 -0.0866,-0.229519 2.73737,-3.603303 0.73361,-0.855874 2.22654,-2.783824 3.04892,-3.554802 5.83225,-5.189009 -1.24125,1.415671 4.00026,-3.201938 2.53968,-2.234915 0.0171,-0.393428 2.15068,-2.014946 1.85292,-1.203265 4.317,-3.163498 6.18916,-4.061011 0.28797,-0.08063 1.94706,-1.002852 2.6726,-1.002852" />
  </g>
  <g
     inkscape:groupmode="layer"
     id="layer9"
     inkscape:label="Path5"
     style="display:inline"
     transform="translate(-35.325315,-13.258384)">
    <path
       style="fill:#000000;fill-rule:nonzero;stroke:none;stroke-width:0.264583px;stroke-linecap:butt;stroke-linejoin:miter;stroke-opacity:1"
       d="m 121.00418,79.392649 c 0.0411,-0.09438 0.12796,-0.304174 0.28038,-0.63983 0.16723,-0.368268 0.4607,-0.992072 0.72376,-1.491834 0.10454,-0.198614 0.19719,-0.364735 0.28805,-0.518121 0.0792,-0.133692 0.14576,-0.239088 0.22675,-0.3681 0.069,-0.109979 0.1471,-0.234901 0.23573,-0.38667 0.0823,-0.140866 0.17726,-0.310903 0.29274,-0.532388 0.2101,-0.402968 0.49908,-0.996803 0.96197,-2.024689 l -0.0182,0.04088 c 0.38422,-0.772068 0.70139,-1.420386 0.98132,-2.004323 0.26468,-0.552106 0.48497,-1.023426 0.70218,-1.494528 0.20639,-0.447629 0.40377,-0.881432 0.62801,-1.37043 0.21651,-0.472145 0.46417,-1.009189 0.77232,-1.666275 0.53061,-1.181538 1.16976,-2.52739 1.87859,-3.974528 0.70438,-1.438053 1.46894,-2.958544 2.24625,-4.483343 1.55892,-3.058043 3.19905,-6.190808 4.41519,-8.534287 a 3.0616227e-4,0.03479237 26.37569 0 0 0.019,-0.03917 c 0.3887,-0.775613 0.68394,-1.364245 0.92836,-1.874484 0.25721,-0.536905 0.45435,-0.979406 0.63537,-1.436031 0.18898,-0.47668 0.35128,-0.946833 0.51741,-1.465655 0.17823,-0.556576 0.37697,-1.221221 0.60218,-1.981588 0.0221,-0.04945 0.0516,-0.124994 0.0824,-0.208731 0.0341,-0.09259 0.0714,-0.199573 0.10952,-0.313249 0.0104,-0.03093 0.0208,-0.06236 0.0313,-0.09418 0.0709,-0.215864 0.15268,-0.478599 0.24126,-0.779453 0.19925,-0.676742 0.42763,-1.527687 0.63587,-2.432116 a 2.3932654,1.91701 53.549691 0 0 0.0311,-0.792947 c -0.0343,-0.255066 -0.0331,-0.46707 -0.0233,-0.694527 0.009,-0.204507 0.0442,-0.652341 0.0173,-1.063156 -0.0173,-0.26351 -0.0582,-0.537579 -0.13681,-0.821713 -0.0896,-0.323759 -0.21521,-0.613126 -0.35966,-0.872224 -0.17687,-0.317232 -0.37638,-0.578449 -0.5454,-0.777146 -0.23731,-0.278979 -0.47581,-0.503629 -0.56023,-0.583353 -0.0614,-0.05795 -0.10949,-0.101351 -0.12004,-0.11093 a 2.1845283,2.1845283 90 0 0 -2.93708,3.234536 c 0.005,0.0042 0.0331,0.03023 0.063,0.05821 0.0558,0.05217 0.14429,0.139748 0.21139,0.221969 0.0416,0.05101 0.0609,0.08621 0.0539,0.07634 -0.007,-0.0097 -0.0239,-0.04275 -0.0377,-0.08923 -0.0109,-0.03668 -0.0145,-0.071 -0.0143,-0.05872 3.7e-4,0.02179 -0.009,0.209995 -0.0242,0.604768 -0.0111,0.278697 -0.0168,0.640056 0.0221,1.073383 -0.15702,0.695251 -0.31548,1.339545 -0.45227,1.898727 -0.0706,0.28855 -0.13142,0.538431 -0.18107,0.752517 -0.007,0.03132 -0.0144,0.06242 -0.0214,0.09314 -0.0257,0.11283 -0.0493,0.221285 -0.0693,0.319768 -0.0186,0.09155 -0.0335,0.172086 -0.0455,0.246825 -0.21048,0.82233 -0.35151,1.403076 -0.49345,1.973499 -0.12132,0.487561 -0.22469,0.89135 -0.33678,1.269128 -0.10685,0.360068 -0.23094,0.729454 -0.41988,1.214534 -0.18331,0.470588 -0.42378,1.040684 -0.77041,1.827938 l 0.019,-0.03916 c -1.15256,2.400216 -2.68476,5.514972 -4.18954,8.665462 -0.74275,1.55506 -1.47612,3.113718 -2.15052,4.594024 -0.67774,1.487647 -1.29378,2.891407 -1.80206,4.136567 -0.27543,0.697475 -0.48716,1.269225 -0.66833,1.775259 -0.18634,0.520472 -0.34091,0.972515 -0.4998,1.424694 -0.16667,0.474339 -0.33511,0.940768 -0.54685,1.486245 -0.22439,0.578113 -0.48902,1.22306 -0.82448,1.997669 a 3.1713769e-4,0.04040097 23.52935 0 0 -0.0182,0.04089 c -0.051,0.12775 -0.75074,1.880661 -0.80171,2.008411 -0.0797,0.199385 -0.15287,0.382318 -0.20031,0.500259 -0.0587,0.145979 -0.10353,0.256094 -0.15535,0.380379 -0.0551,0.132185 -0.11579,0.27456 -0.1803,0.426101 -0.0849,0.199444 -0.15268,0.358954 -0.25289,0.595982 -0.23083,0.546009 -0.51213,1.21725 -0.66696,1.57876 -0.15321,0.357736 -0.23306,0.53117 -0.28418,0.648498 a 1.0661127,1.0661127 90 0 0 1.95472,0.851736 z"
       id="path78291"
       sodipodi:nodetypes="ccccscc"
       inkscape:path-effect="#path-effect78768"
       inkscape:original-d="m 120.02682,78.966781 c 1.84893,-4.243268 1.09692,-2.096363 2.77554,-6.050011 1.48626,-3.194082 1.64938,-3.912451 2.8124,-6.611466 2.08346,-4.867105 5.90431,-12.315382 8.34032,-17.192352 1.44535,-3.071366 1.4427,-3.225483 2.35192,-6.521424 0.13251,-0.480339 0.58444,-2.012524 0.97572,-3.752913 -0.24838,-1.727529 0.51792,-2.215434 -1.02648,-3.617806" />
  </g>
</svg>
