<?xml version="1.0" standalone="no"?>
<!DOCTYPE svg PUBLIC "-//W3C//DTD SVG 20010904//EN" "http://www.w3.org/TR/2001/REC-SVG-20010904/DTD/svg10.dtd">
<svg version="1.0" xmlns="http://www.w3.org/2000/svg"
    width="904.000000pt" height="904.000000pt" viewBox="0 0 904.000000 904.000000"
    preserveAspectRatio="xMidYMid meet">
    <g transform="translate(0.000000,904.000000) scale(0.100000,-0.100000)"
        fill="#B5A887" stroke="none">
        <path
            d="M4149 9016 c-2 -2 -40 -7 -84 -10 -91 -7 -154 -13 -205 -22 -19 -3
-46 -7 -60 -9 -41 -6 -94 -15 -110 -20 -8 -2 -32 -6 -54 -10 -21 -3 -41 -7
-45 -9 -3 -2 -24 -7 -46 -11 -46 -8 -70 -13 -70 -15 0 -2 -25 -8 -63 -15 -18
-4 -103 -29 -190 -56 -86 -27 -164 -51 -172 -54 -30 -8 -255 -97 -265 -104 -5
-4 -26 -14 -45 -21 -47 -18 -329 -157 -345 -170 -6 -5 -15 -7 -18 -3 -4 3 -7
2 -7 -4 0 -6 -8 -13 -17 -17 -10 -3 -31 -15 -48 -26 -16 -11 -37 -23 -45 -27
-31 -15 -145 -88 -148 -95 -2 -5 -8 -8 -13 -8 -5 0 -46 -26 -90 -57 -45 -32
-88 -62 -97 -68 -9 -5 -30 -22 -47 -37 -16 -16 -33 -28 -37 -28 -3 0 -24 -15
-45 -32 -22 -18 -55 -44 -73 -58 -18 -14 -38 -30 -44 -36 -6 -5 -49 -43 -96
-84 -159 -140 -406 -396 -518 -539 -15 -19 -32 -39 -37 -45 -6 -6 -31 -38 -55
-71 -25 -33 -48 -64 -53 -70 -45 -59 -86 -118 -143 -205 -37 -58 -72 -106 -76
-108 -4 -2 -8 -12 -8 -22 0 -10 -5 -22 -10 -25 -6 -4 -20 -25 -31 -48 -12 -22
-28 -47 -35 -55 -8 -7 -14 -18 -14 -23 0 -5 -11 -27 -25 -49 -14 -22 -22 -40
-18 -40 5 0 3 -4 -3 -8 -6 -4 -26 -40 -44 -79 -19 -40 -38 -73 -42 -73 -4 0
-8 -6 -8 -14 0 -7 -21 -58 -46 -112 -26 -54 -47 -103 -48 -109 -2 -5 -10 -28
-20 -50 -17 -39 -83 -215 -92 -245 -6 -23 -45 -143 -52 -160 -3 -8 -6 -19 -7
-25 -1 -5 -9 -35 -19 -66 -9 -31 -18 -65 -20 -75 -2 -11 -9 -39 -16 -64 -13
-49 -13 -46 -25 -105 -12 -55 -12 -55 -14 -57 -2 -2 -4 -16 -6 -33 -2 -16 -7
-46 -11 -65 -8 -41 -11 -62 -18 -110 -3 -19 -8 -48 -10 -65 -10 -61 -19 -131
-21 -160 -1 -16 -6 -70 -11 -120 -17 -171 -10 -644 12 -840 3 -27 7 -63 9 -80
2 -16 4 -30 5 -30 1 0 3 -16 6 -35 11 -98 26 -186 49 -290 9 -41 18 -84 20
-95 1 -11 3 -20 4 -20 2 0 4 -11 7 -25 4 -26 18 -82 35 -137 6 -18 12 -42 14
-53 2 -12 7 -30 10 -40 3 -10 8 -27 10 -37 2 -10 20 -63 40 -118 20 -55 37
-104 38 -110 2 -5 16 -44 32 -85 16 -41 30 -77 31 -80 1 -7 18 -50 69 -175 7
-16 25 -61 40 -100 16 -38 30 -72 31 -73 3 -5 98 51 102 60 2 4 10 8 18 8 8 0
14 5 14 10 0 6 4 10 10 10 5 0 49 24 97 53 48 29 95 56 103 60 8 4 31 17 50
29 19 11 60 34 90 51 30 17 57 33 60 36 3 3 23 15 45 26 44 22 145 80 160 92
6 5 22 14 37 20 28 13 31 40 7 69 -6 8 -9 14 -6 14 4 0 -10 37 -29 82 -54 125
-138 343 -149 388 -1 3 -4 12 -8 20 -7 20 -26 82 -32 106 -2 10 -9 37 -15 59
-6 22 -13 54 -16 70 -3 17 -9 44 -14 60 -5 17 -11 44 -14 60 -2 17 -8 50 -12
75 -4 25 -8 56 -9 70 -2 14 -6 48 -9 75 -8 59 -9 690 -2 755 3 25 8 64 11 87
15 123 14 117 30 193 2 14 7 39 10 55 2 17 11 55 19 85 8 30 12 58 10 62 -3 5
-1 8 3 8 5 0 10 11 11 24 1 13 26 95 55 182 29 88 55 166 58 174 2 8 6 17 9
20 3 3 11 23 19 45 30 88 192 419 257 526 19 31 34 60 34 63 0 4 5 12 11 19 6
7 38 55 72 107 33 52 64 97 67 100 3 3 30 38 60 79 30 41 64 85 75 97 11 13
36 42 55 65 78 95 434 442 519 506 65 50 127 98 131 103 3 4 39 28 80 55 41
28 77 53 80 56 3 3 19 14 35 23 17 9 44 25 60 36 17 10 41 25 55 33 51 27 75
42 90 54 8 6 17 11 20 11 3 -1 52 22 110 50 130 62 248 112 266 112 8 0 14 5
14 12 0 6 2 9 6 6 3 -3 51 10 107 28 56 19 129 41 162 50 33 8 67 18 75 21 8
3 24 7 35 9 11 1 67 12 125 24 58 12 123 23 145 25 22 2 40 4 40 5 0 8 290 22
510 24 l210 2 48 29 c27 17 64 39 82 50 155 95 541 341 546 348 3 5 9 8 13 8
3 -1 16 5 29 14 52 37 148 95 157 95 6 0 10 4 10 8 0 5 12 15 28 23 15 8 52
30 82 50 30 20 94 62 142 93 54 35 85 62 82 70 -4 10 -138 64 -179 72 -5 1
-55 14 -109 29 -54 14 -111 28 -125 31 -14 2 -75 15 -136 29 -60 13 -123 25
-140 26 -16 2 -34 5 -40 8 -5 3 -21 6 -35 7 -48 5 -115 14 -145 19 -16 3 -55
8 -85 11 -68 6 -766 15 -771 10z" />
        <path
            d="M6290 8496 c-159 -90 -176 -99 -202 -117 -14 -11 -33 -19 -42 -19 -9
0 -16 -4 -16 -8 0 -5 -15 -16 -32 -25 -18 -10 -46 -26 -63 -36 -16 -11 -47
-29 -67 -40 -21 -11 -57 -33 -80 -48 -24 -15 -46 -26 -50 -25 -5 1 -8 -2 -8
-8 0 -5 -5 -10 -11 -10 -6 0 -30 -13 -54 -30 -24 -16 -47 -30 -51 -30 -4 0
-22 -11 -41 -26 -18 -14 -33 -21 -33 -17 0 4 -4 3 -8 -2 -4 -6 -43 -32 -88
-58 l-80 -47 -2 -82 c-2 -46 -2 -96 -1 -113 0 -16 1 -34 1 -40 -11 -262 -19
-3466 -10 -3770 l5 -160 39 1 c25 0 76 19 146 52 59 29 112 52 117 52 5 0 11
4 13 9 2 4 35 25 73 45 39 21 93 51 120 67 28 17 62 35 78 42 15 6 27 15 27
19 0 4 4 8 10 8 7 0 99 52 230 130 8 5 54 32 102 60 48 28 91 56 95 63 4 6 8
172 9 368 1 196 4 362 8 367 3 6 2 13 -4 17 -6 4 -7 12 -3 18 9 14 13 3027 4
3150 -3 49 -3 91 2 94 4 2 4 10 0 16 -5 7 -8 28 -9 47 -1 19 -2 56 -3 83 -1
42 -3 47 -23 46 -13 -1 -57 -20 -98 -43z" />
        <path
            d="M6839 8363 c-4 -52 -12 -1074 -10 -1159 1 -24 18 -48 81 -115 136
-143 237 -254 305 -334 28 -32 57 -66 65 -75 9 -9 29 -34 45 -55 16 -22 42
-56 58 -75 15 -19 31 -40 36 -46 24 -31 151 -223 151 -229 0 -4 8 -19 19 -33
27 -38 135 -249 167 -324 14 -35 34 -81 44 -103 16 -34 87 -231 94 -260 2 -5
6 -17 9 -25 4 -8 8 -24 10 -35 2 -11 7 -27 10 -35 10 -26 55 -203 61 -244 4
-21 9 -42 12 -47 3 -5 7 -26 9 -47 3 -20 7 -47 9 -59 2 -11 8 -43 12 -70 3
-26 8 -57 10 -67 12 -67 18 -207 18 -466 1 -295 -6 -433 -25 -532 -5 -29 -12
-66 -14 -83 -2 -16 -6 -40 -9 -51 -2 -12 -7 -37 -10 -55 -3 -19 -8 -45 -11
-59 -3 -14 -8 -34 -10 -45 -3 -11 -16 -63 -30 -115 -14 -52 -28 -104 -30 -115
-3 -11 -18 -59 -34 -107 -16 -47 -27 -89 -23 -92 3 -3 1 -6 -5 -6 -5 0 -10 -6
-10 -12 0 -18 -92 -243 -143 -353 -23 -49 -41 -92 -40 -94 1 -2 -2 -7 -7 -10
-4 -3 -16 -22 -25 -41 -10 -19 -33 -62 -52 -95 -19 -33 -43 -73 -52 -90 -18
-32 -123 -193 -136 -210 -4 -5 -34 -44 -65 -85 -149 -195 -414 -446 -613 -580
-12 -8 -28 -19 -34 -25 -15 -13 -47 -33 -66 -42 -8 -4 -19 -11 -25 -16 -27
-23 -162 -106 -172 -107 -7 0 -13 -4 -13 -10 0 -5 -4 -10 -8 -10 -5 0 -44 -21
-88 -46 -64 -37 -368 -189 -449 -224 -11 -5 -50 -22 -87 -39 -38 -16 -68 -28
-68 -25 0 2 -13 -2 -30 -11 -27 -14 -180 -73 -205 -79 -5 -2 -17 -6 -25 -9
-15 -6 -173 -56 -200 -63 -8 -2 -68 -17 -132 -33 -111 -28 -145 -35 -231 -47
-21 -3 -46 -7 -55 -9 -9 -2 -58 -4 -109 -4 -91 -1 -92 -1 -130 -37 -44 -42
-171 -158 -223 -203 -59 -52 -224 -167 -289 -203 -34 -18 -72 -39 -84 -45 -22
-12 -117 -56 -127 -58 -3 -1 -21 -8 -40 -16 -47 -21 -171 -63 -245 -83 -33 -9
-76 -22 -95 -27 -20 -6 -48 -12 -62 -12 -31 -2 -24 -14 12 -21 14 -2 27 -5 30
-6 6 -3 10 -3 80 -14 30 -5 64 -10 75 -13 11 -2 32 -6 48 -8 15 -3 39 -7 55
-10 58 -9 114 -17 222 -30 30 -3 82 -10 115 -15 60 -8 590 -5 655 4 19 3 74 8
122 11 48 3 102 8 120 11 18 2 58 6 88 9 30 3 71 7 90 10 19 3 55 8 80 11 25
2 56 7 69 9 29 5 95 15 136 20 17 2 30 4 30 5 0 1 14 3 30 5 66 9 92 13 145
24 30 6 66 13 80 16 14 3 50 10 80 16 30 6 62 13 70 14 8 2 15 4 15 5 0 1 11
3 25 6 150 27 471 136 725 247 72 31 313 155 365 188 14 9 57 35 95 60 117 73
358 248 431 314 6 6 36 30 65 55 68 57 308 297 376 375 86 100 127 150 148
179 11 16 25 33 30 40 16 17 178 246 202 286 115 188 244 427 302 560 13 30
35 80 49 110 13 30 26 62 27 70 2 8 4 17 5 20 1 3 2 8 1 12 0 5 4 8 9 8 5 0 9
3 8 8 0 4 2 14 5 22 28 68 54 149 50 154 -4 3 -2 6 4 6 5 0 10 6 10 13 0 6 12
47 27 90 14 43 24 82 21 87 -3 4 -1 10 3 12 11 4 95 329 87 336 -3 3 -1 10 4
16 5 6 11 30 14 53 4 22 9 52 11 65 6 25 13 64 22 118 3 19 7 46 10 60 2 14 7
43 9 65 3 22 7 56 10 75 15 105 19 225 19 495 0 316 -11 575 -30 665 -2 14 -7
41 -9 60 -3 19 -7 46 -9 60 -2 14 -7 43 -10 65 -4 22 -9 51 -12 65 -3 14 -8
34 -10 45 -18 93 -28 140 -44 200 -10 39 -21 81 -23 95 -3 14 -10 37 -15 51
-6 14 -12 39 -15 55 -5 28 -80 259 -97 299 -5 11 -23 58 -40 105 -34 90 -49
125 -111 258 -22 46 -39 87 -39 91 0 5 -7 14 -15 21 -9 7 -13 15 -10 18 3 3 1
10 -4 16 -5 6 -28 47 -51 91 -24 44 -49 87 -56 95 -7 8 -14 20 -15 25 -3 13
-62 109 -124 202 -27 41 -54 82 -60 91 -5 10 -12 19 -15 22 -3 3 -26 34 -52
70 -186 263 -457 551 -768 814 -14 12 -79 62 -145 111 -66 50 -122 93 -125 96
-18 20 -265 189 -276 189 -8 0 -15 -8 -15 -17z" />
        <path
            d="M4789 7551 c-52 -26 -127 -66 -167 -89 -41 -23 -78 -42 -82 -42 -5 0
-10 -3 -12 -7 -1 -5 -23 -18 -48 -31 -25 -13 -88 -48 -140 -79 -52 -30 -108
-63 -125 -73 -16 -9 -77 -45 -133 -79 -57 -33 -105 -61 -107 -61 -2 0 -33 -18
-69 -41 -62 -39 -65 -42 -65 -82 -1 -51 0 -94 3 -127 1 -14 -2 -33 -7 -42 -4
-10 -4 -18 0 -18 4 0 8 -25 8 -55 0 -30 -4 -55 -8 -55 -5 0 -5 -5 -2 -10 6 -9
7 -93 4 -350 0 -36 0 -69 1 -75 1 -5 1 -39 0 -75 -2 -60 -6 -1598 -10 -3197
l-1 -651 -43 -84 c-47 -93 -107 -200 -116 -208 -3 -3 -19 -25 -35 -50 -76
-114 -207 -239 -320 -307 -59 -35 -205 -98 -205 -88 0 3 -13 -1 -30 -10 -16
-9 -30 -13 -30 -11 0 3 -14 1 -32 -4 -99 -29 -279 -33 -414 -9 -139 25 -164
32 -269 80 -27 12 -53 23 -57 23 -4 1 -13 7 -20 14 -6 6 -16 12 -21 12 -11 0
-123 76 -160 109 -70 61 -97 89 -141 146 -66 85 -68 89 -121 194 -27 55 -90
216 -94 244 0 4 -2 9 -2 12 -1 3 -2 8 -3 13 -11 48 -31 127 -43 169 l-14 52
-84 -50 c-46 -27 -88 -49 -94 -49 -5 0 -11 -4 -13 -8 -1 -5 -48 -35 -103 -66
-55 -32 -128 -76 -162 -97 -34 -22 -67 -39 -73 -39 -5 0 -10 -4 -10 -9 0 -5
-6 -11 -12 -13 -11 -3 -89 -48 -212 -123 -18 -11 -67 -40 -109 -64 -54 -32
-77 -51 -77 -64 0 -55 134 -392 183 -462 12 -16 20 -32 18 -34 -2 -1 1 -10 8
-20 6 -9 33 -48 59 -88 92 -140 268 -342 373 -428 13 -11 38 -31 55 -45 17
-14 43 -34 58 -45 16 -11 33 -25 40 -30 6 -6 34 -25 61 -42 28 -18 55 -36 60
-40 10 -7 51 -31 100 -57 11 -6 28 -17 38 -25 9 -8 17 -11 17 -7 0 4 19 -4 42
-17 39 -22 267 -116 292 -121 6 -2 29 -8 51 -14 22 -6 45 -12 50 -13 6 -1 21
-6 35 -11 25 -10 188 -44 270 -56 123 -19 627 -2 730 24 14 3 36 8 50 11 134
25 436 133 510 183 14 9 32 19 41 22 52 19 251 162 338 242 140 131 242 257
342 421 109 179 179 346 262 620 18 58 64 262 72 320 4 22 8 51 11 65 2 14 7
50 9 80 3 30 7 66 9 80 5 24 13 151 21 335 13 269 18 990 18 2345 -1 1460 -5
1933 -19 2200 -4 69 -7 135 -8 147 0 13 -6 25 -12 27 -6 2 -53 -17 -105 -43z" />
        <path
            d="M3295 6629 c-60 -33 -124 -66 -142 -74 -17 -8 -34 -19 -38 -25 -3 -5
-15 -10 -25 -10 -10 0 -20 -4 -22 -8 -3 -7 -266 -158 -325 -186 -13 -6 -23
-14 -23 -18 0 -5 -6 -8 -12 -9 -7 0 -58 -27 -113 -59 -55 -32 -133 -77 -172
-100 l-73 -41 0 -422 c-1 -232 -2 -1186 -3 -2119 -2 -934 -2 -1698 0 -1698 5
0 47 24 53 30 4 4 29 18 115 64 11 6 22 13 25 16 10 10 65 41 83 47 9 3 17 10
17 15 0 5 4 7 9 3 5 -3 16 2 24 10 9 8 18 15 20 15 3 0 154 86 336 190 182
105 336 190 341 190 6 0 10 5 10 10 0 6 6 10 13 10 6 0 22 8 35 18 l23 18 -1
1125 c-1 1467 -6 2188 -13 2195 -3 3 -1 19 3 35 5 16 6 29 2 29 -4 0 -7 20 -7
45 0 25 4 45 9 45 5 0 4 6 -3 13 -8 10 -7 17 1 25 7 7 8 12 3 12 -6 0 -11 96
-13 238 -1 130 -4 269 -6 307 -2 39 -4 82 -5 98 -1 15 -4 27 -8 26 -5 0 -57
-27 -118 -60z" />
    </g>
</svg>